<mxfile host="app.diagrams.net" modified="2024-05-25T08:14:35.330Z" agent="Mozilla/5.0 (Windows NT 10.0; Win64; x64) AppleWebKit/537.36 (KHTML, like Gecko) Chrome/125.0.0.0 Safari/537.36 Edg/125.0.0.0" etag="iUQdsm2xR-rxAoiXRCMF" version="24.4.8" type="device">
  <diagram name="Сторінка-1" id="YdQ-AeLT9qKin60M7MME">
    <mxGraphModel dx="1603" dy="1848" grid="1" gridSize="10" guides="1" tooltips="1" connect="1" arrows="1" fold="1" page="1" pageScale="1" pageWidth="827" pageHeight="1169" math="0" shadow="0">
      <root>
        <mxCell id="0" />
        <mxCell id="1" parent="0" />
        <mxCell id="qTHWxoSnpV-X286SpZp5-44" style="edgeStyle=orthogonalEdgeStyle;rounded=0;orthogonalLoop=1;jettySize=auto;html=1;entryX=0.5;entryY=1;entryDx=0;entryDy=0;startArrow=classic;startFill=1;" edge="1" parent="1" source="qTHWxoSnpV-X286SpZp5-4" target="qTHWxoSnpV-X286SpZp5-5">
          <mxGeometry relative="1" as="geometry" />
        </mxCell>
        <mxCell id="qTHWxoSnpV-X286SpZp5-4" value="CryptoService" style="rounded=0;whiteSpace=wrap;html=1;" vertex="1" parent="1">
          <mxGeometry x="940" y="295" width="120" height="60" as="geometry" />
        </mxCell>
        <mxCell id="qTHWxoSnpV-X286SpZp5-30" value="" style="group" vertex="1" connectable="0" parent="1">
          <mxGeometry x="420" y="-20" width="380" height="220" as="geometry" />
        </mxCell>
        <mxCell id="qTHWxoSnpV-X286SpZp5-3" value="" style="rounded=0;whiteSpace=wrap;html=1;" vertex="1" parent="qTHWxoSnpV-X286SpZp5-30">
          <mxGeometry width="380" height="220" as="geometry" />
        </mxCell>
        <mxCell id="qTHWxoSnpV-X286SpZp5-18" value="WebSocket" style="rounded=0;whiteSpace=wrap;html=1;" vertex="1" parent="qTHWxoSnpV-X286SpZp5-30">
          <mxGeometry x="20" y="140" width="80" height="50" as="geometry" />
        </mxCell>
        <mxCell id="qTHWxoSnpV-X286SpZp5-19" value="Queue" style="rounded=0;whiteSpace=wrap;html=1;" vertex="1" parent="qTHWxoSnpV-X286SpZp5-30">
          <mxGeometry x="155" y="140" width="70" height="50" as="geometry" />
        </mxCell>
        <mxCell id="qTHWxoSnpV-X286SpZp5-20" value="Spark Transorm/Load" style="rounded=0;whiteSpace=wrap;html=1;" vertex="1" parent="qTHWxoSnpV-X286SpZp5-30">
          <mxGeometry x="280" y="140" width="80" height="50" as="geometry" />
        </mxCell>
        <mxCell id="qTHWxoSnpV-X286SpZp5-24" value="DataETL" style="text;html=1;align=center;verticalAlign=middle;whiteSpace=wrap;rounded=0;" vertex="1" parent="qTHWxoSnpV-X286SpZp5-30">
          <mxGeometry x="160" y="25" width="60" height="30" as="geometry" />
        </mxCell>
        <mxCell id="qTHWxoSnpV-X286SpZp5-26" value="" style="shape=image;verticalLabelPosition=bottom;labelBackgroundColor=default;verticalAlign=top;aspect=fixed;imageAspect=0;image=data:image/png,iVBORw0KGgoAAAANSUhEUgAAASYAAACrCAMAAAD8Q8FaAAAAvVBMVEUAAAD/////WwFXV1cWFha7u7v/VwD/WAD/UgD/TQD/VAD/UAD/SwD///3/4NH/eD//5db/4tf/m3P/28z/6d//uZv/yrT/f0P/+fb/8On/p4P/7OP/hU3/YQD/9/L/qIb/k2b/w6v/ZRz/18b/rpD/bCj/f0r/0b//x7D/vqL/oXr/hVT/cDL/YhL/gE7/tJj/jltAQED/jWD/czn/bSz/PwD/lW3/fDn/bhz/gkL/aBP/k1//i1H/n3X/tJOc4jutAAAJxElEQVR4nO2dC1viuhZAT3Pu3UmTFkEKtiLlLe+R4wO5zJH//7NuHi0WrJqZkYEOe33zDfRBaxfJ7m5M4l9/IQiCIAiCIAiCIAiCIAiCIAiCIAhSKP5TKI5l6W+nUPyNmmxATVagJitQkxWoyQrUZAVqsgI1WXH6mvxPOaCelNPXdD27+IRpdEBBhtPXFC48oB/CHg7u6fQ1Of69IB/DD+6pAJpsPM0O7KkImhy//amnx8N6KoQmm/J0WE/F0GTjqXtITwXRZFHv4JCeiqLJcdouz4FmPM0P56k4mvz+ZQ6P/Ld4Ko6mfKKH9z1V6l90kuJrcqKL9zxVum7nq85SeE3veqp0gYjOF52k+JqkJ5a93zXMWmWJ0K/y9AdocqLbHU+BWqctKU/jLzlFgTSVJteGyf4NLbrle54qc0gWv8ZTgTSNPGZ4CvY3xd9gx9OrpS/yVCBN9TQPd99ocvqZ4kTcTs3LLIo71GS443ta+uJrPRVSU2PfEss8szAtZceTuzlLTb19Sxkl/Nqs3PX0q+WpiJooKWXX97OWCJ01cjx5b8PZH6+JQNbTriW5cZDjySufoSYCtLK19KYdKs+Tez6ahpm7PE09vbWU6+mMNPmtjJIkPuVZynri56fJcXY9Vd+z9OqpkibjZ6XJabnZelfqZxYJyyZPfBCfsaZdTzybe3t3QeZBjpDgnDXt1LssqqEyHmS8nbemdzwx3QwQzzhq+sATtM228NXTuWvK9cSSh7bwgaGmhLw0IH24DdOGcdSU76mfeEoaxlGT9OTmeErLk/GEmpxPytOUoaY9T/CeJ9RkPOl6B992PLVSTwI1JUhPlI9328FfPTHUlHDn8pF8GWf7OLlJS3h4r9ujUJOkNtIvnR1PE7MtDNX/qEnSGSav2dZwMcnsgZq0nV76juZ7Qk3OSFBK0vIkXJHiPi23g30qnmt4OldNHUFVS2/iqVfPMNr2WIm3q+JfO1tRNY1Mern1dGAKqmkkkmj0mzwVU9PI3cZsCr/DUzE1XWR/E/U7PBVTk5/tlUqhU/qcc9Tk+Fc7/by8T3m6PkdNjj/9bKjPHt7k84P+eZp+3JP7K+WpsJqkJ/a5m6/yVFxNFkMR9z21zlGTE/6oJ/HTnoqs6cfL0097KrQmi6GtX+Sp2JqccAnvO6Hwlp+M4wXX5ITB+1RyCc9R028CNVmBmqxATVagJitQkxWoyQrUZAVqsgI1WYGarEBNVqAmK1CTFajJiiNrCsMw6Yzkh2H4+m5vOuLXja9Evc542LCatzjn0z/IkTU9E57M9LKg5Nm8G3Ky2rusqqDt3TWNJXGFcNmVRQeCMtD/vb/VyuGRNV0zbq7fJ5SavtxyHVvu/ZRVj+9qKhEGDNQ/i9btEoOrdzeWm4PvJ69pyOla15uqSwjTU+b5tyBG+5rcXU1hE+ChU612bm0mRivzjzR5/ObkNUVzaubP2TBC+aVe1aR0f66YfU0jl3Z1N0G/zeHis0rzsSYXTl+TcwWmNFzBfAAzVbCGAm5NYG5Uq4H/qskPqqWkV2WLpeMxK54wAwocv1HtVTJdLBulXiXa1RTHsVEaVXrmVwd+WJWa/NhP1lbfuSccW9Md02UoljFqwklZK2A63JQWREhjw0TTsrGggjXbgdFEB+bz4Xg81jKG3+TufNBKRJUWTSFY97KR0dQZDGaqn1M06TLBZzVpZNQdUDKfdWV1ry6aTAgyrZ6ipiqnK3WRLhvVBZMFy/8GQnX3HhImSFNwVtOa6MXMI03G2VyprHuEL0rZytZnXKjtwswcXqec0SbnTE00l2jqMN5URw5mQqhtou07Y4+pefq8jtMjnJEmcA570x6dhKZwTkWk7m4QRIwvdbRSc1cGTSDjKBo1KevpAE9prRH1LoA/qGoxY4TDw8swDWJ1RummEVUvOFdGAgLQCqLSlLOpn2gaMT5XZSm8ZXAdyF3B7TtRtSPoRakaOVNOW40oaDM2y6l3x9bkLMCVJX4FA8ef8Vno9AS/l6uXTOj7Xk/AhdZk8qv4kardnehGcADOmlcbVXrCh+TuGK6okNV0klTcuCu8wGiSlrp6uM9IMN0jLOpSHm1DeDgwM4vGi29XOTP7Hl3TmPFrJ3L5i7o4WpG1R8hqFs/h1myfApRUpZuF6e46qfJ7kwcuOAXRraqqCxemDIyEDPbhOp1NdbTpa003Q5bOm3LPk201piYxTDTJNATauhrn/kWSo2sqA8wcGZbqOkB1pBZe0dd9O65JxlNgo0xCUCZy96S+Bp3lWhAYRDLssCTLjFwZ3BsilWw+w0lXVtpBaAoY7d7pI7+AunukCUHdBU4fF7X8URtH1+R3KfMvOchvOALejtfwIC9nKGOP6VvqMm+sNCVdJ6M5rDPfdlijamLLO10E9eGAzp2SgMWuJhmrKEvSMkKTbqvCm2bypvrMFYwxuKk4bzm6JqfN3epaFxH/lj8MTYLQY3BbS9hUlKZLs3djDiun9Hy1fUhbclnQaowlkxHGgnadioDprib+XOaUDbUmOtikh65n00u/UmuvBXCyn9yehKYRg++U6dHMLTb/F1QIdsoU7jM/pcwBk1oka+ONE3gg0mtpqafCYfpo6JRcGa4jSEPZpr0oS010HTobQdVsRTLad7PjfFJNJiL51RkV/VPUFACRFUcndT0hQ0hTBVh/AGAu5vtq1VB3OjAd4C+5MtqkaelyZJrVV1kEGG8LYHeOL/MGnf3EMo+M0rzpEdiLOYKZbn28Wr+WpoA0TaGSxnO6Rh9fk7NSI770dxk31Vhw/XYj+I0qEGOXXemEAAYq/x5zPYfq2COsrbw02oyCXPEiQP/lno1LVZTreFTf12RicL9NL0vyQ1JeSVZLFadLTc7kNxF4tOurUwNoexPu1k5Sk3xIScPDFIipfmoYAaf3y4EAGugsvMvYzeWjSLot/ysTKbe5klk61VcVzxjwxXIlqKcvdiFjzHS5YkBes3BnIvQDc8sFeagrAZ5KtUKZuZLmyLnzqJgt22uZqueMvTsBTXV5y0na5jbybfJMFX43gy0H6puvPnmtiVB3onSIaksmTRIm1qYGxQvB1O5N00znv6hFJlYlXYxc3eIXroWnQtgG9JGJaa659ph46qjp+swRnvNmEj0BTWG9Xk8S36heH26f1Er99mIyTNcHcvl+0doO0Yk7l1fPN9dDf2f3+naxvNkuxvW6eU4ryzOpw0fjy8VlJy005U5trCuwXNvu5z75noKmIoCarEBNVqAmK1CTFajJCtRkBWqyAjVZgZqsQE1WoCYrUJMVqMmKY2n657+F4p8jaUIQBEEQBEEQBEEQBEEQBEEQBEEQBDkg/wdR+R4gd55ZXQAAAABJRU5ErkJggg==;" vertex="1" parent="qTHWxoSnpV-X286SpZp5-30">
          <mxGeometry x="4" y="72.91" width="115.36" height="67.09" as="geometry" />
        </mxCell>
        <mxCell id="qTHWxoSnpV-X286SpZp5-27" value="" style="shape=image;verticalLabelPosition=bottom;labelBackgroundColor=default;verticalAlign=top;aspect=fixed;imageAspect=0;image=data:image/png,iVBORw0KGgoAAAANSUhEUgAAAUwAAACYCAMAAAC4aCDgAAAAkFBMVEX///8aGRkAAAAXFhYTEhKurq7k5OQ8Ozuenp7FxcWTk5MlJCQHBQVwcHB5eHgSERGoqKgyMjL4+Pjr6+ve3t7Nzc3y8vIMCwvY2Nizs7O5ubm/v7+rq6vLy8uQkJCEhIRJSUliYmJTUlJeXV0sKytCQUGJiYlzc3NramqAgIAgHx85OTkpKCgxMDBXV1dOTk4ym7ByAAAQcklEQVR4nO1d6XqqyhLVgigqigGVaBLjmKgxyfu/3QVBqqonkO1wvLJ+nG+fINAsuquqa6JWU2DodGf7+q45/3wdqY5XKIpBDwBCu16vW170r7/JrQd0v2gswbXqBB5YFZ3l0IawLsKCWXDrcd0h/BlIVMYIoXXrod0dRjtXyWU8Od9uPbg7w8jyNFxGgKdbD+++8C2LS8rm8Nbjuyf01PISV7p/6xHeD4YCl7ZnMxOp7s5vPcT7wcomxEXW+s9sHZns1UIvgwnlDWatw5oefFCz05vdeIx3g2+cmBbglieglie83HCAd4QBEC4H9Mgcj8DHrYZ3X2iDdv6tM+vTsm8zuHsDMgZb4VCD8DxQnlyBgxAmeTA3mRKC8S3Gdm/A2Rf+Sgdfs4MwvcHY7g5osUNbOhhkB92vG4zt7tAC00rGaVttggqAkKlwqyOZy+sP7f5AlrkjHRwhmd0bjO3ugDZ7uJEOEqY/bzC2u4NPTCPp4AeSWfnbi+An25pDXzjkQ+aKqzbnhYCzzxKt9q6Lh24zuHvDO65z75kdcfCIQp5WUIG41cNnEib/pC64KuBbDGQC1j1op0u99Uz+bHd0Jw+nv3WI0Fk6lVStMTUTz0FYb9vTOQCNZWjcHI1tnJt0ONsKAbxplf5Re+MBNS9jKPvLt+q00QbYa4i0FHxUccyZMWyucWb2QZEEAvB69dH/xzDiM0xiSLQ/Y8zV51hVgOPFxCb05BP8pjZvAR7evzRk+oaTo3JxNHV5XhWbtXhuquWmpfRwLI35NJVTZLRQLXW1QnGMXEZnvV99+P81jENxrQP0VKZOIHDphSE/sQoMR+jvia3uRlQ2lD+bU4kQWaXrzfybm5yKcNID4qW9Ttm0ejqLccByk9bJrt1/2pE/V0mICZ4STuxn7S++XEIaMUE/qGNEZZo+Hvp5ZPqUs6Hi1MPpyg3owyGXzBaJcwj+DzI3QS1uHwy5ZKKb0/sTj+0sHc+PiVwySaKXlE+MC11KAntI5JKZ2UCKuNDIMGtvh8Zw0nemt4gV5JGJ+keVMVPPmN4b7zJ+e0rwdmH/fNBfQII0xWLQfzrisneOkUcmbn9Uzra/owywQuNdVgD8GS+DoAtHn8PxRm/Zna8QcD0Xma7xLs3jRuuiZI6J//p4o6fj+K36Be+c4q34MleEfzN1bmlDcAdchUzmj7kBmf5LL0zJeNdExzBnwZOOFVZA1yCzxfwx1ybTf1pkIiaOjq2mqthPE9NpJOWBoTnXbBpdg0weFLwumYMvEBzENkBTztncGnI290i0WVdegUyyuY0kOBwdWdcgc7RRBRvrHuxF+4xuJwXHUrvwdvIKZGJCWh3cXn+cLqMrkKmM26bTc8ndaYQxoQiL1A3aK/P9Lk8mLbuhYZSLk+n/muIQLt02tqjbMmKTzE2qPPM4ujyZ+GZdFl29NJnBzsQl9Vo2FkJkw4JlynRrzQyRnKZIlycTFxAfy4XJbIChp0Q6noP09j8UIcwQ3Pl2uwR2kdxMhMuTmelJu8n+flkyG/qQOWfzDdQT2Ir4DIWko7yoxeXJzOIBIa9guiiZfliAy5jNpjmHhv04N+Ho8mRmWc9cZF6WzLykrYwgyrn5BajyaQSUJXP0/jbd9rbTt2He3P86N5mDifPR6304r3qjry0tXe/gUQkN0zCylkztZqCAK1NL5ksLIfqeG+3vw9jcw38XR1/+MDshNdReo3++/x5luLd8PxxMOdCS6ZM7T8RXNZkndz7cejdNrxXgGYfxCVxGm8j1h/PUny7F7RAha/da8/faZKMiXGrJHAIBnwLDBU/ADY/uu1l2QlIs6x/+jfowmR25O6AmuTMflP/JJ1dE0vzguJhwd94vZwzqTmZHtEQzKIGb3Mn/02gjZZ5XUTIHKJdtzmXwK79cC1YN+gwpX75yZHl78wUx8nkKhQOytggPl8Oi59hHxpvwWMJVhrL96UH3yPZUNXXdgu251GQG+PqEzdWTep14sao7C5ldXQuNQJM8CRuRTDYxbdkLJGS7WdAkPxn8iU/owqZgB1Mlmf4O21jwsWi7WMVbsHOQSYPUzJQaao1w+OVkMolpgcKBuWG/2Anx25dILLtJ5cuhe2mvcO8JJZlEq/E8OlMGIwTLfyeT7IR5dumrwR6Ez3dKJlPl6i4cf2TyWTvpsD/ZrhMJPPs4JfynIpNKLWaozg1c1r318jh3SpNJPDTA2kG8m+5ch21GToe32tJkB7F0d03jLT8ITs3TUpBJFgEXvFOz58BGH+qRTDcCDtuO/9c1kEkogxm9c5CzT8GJ1mF5lvaP5rGpj/V8jTpkMqnUYhpe6FQXHo0RWSMdyez2er1t88iD3dxG/9/7Sie7TCYxIUK+j39m8tLO7CDZyukQ+alug5CAvOPzdTGTyKRSi78ym5d8zceNaBn4jclGchUwY6TwDoiYEOGerTAmBW1YtYexeg2G045EZ4euH0PVLiuhLM2eAJHMMeGSR4/oE1nQI9aC3xY0LSOz6N7cr2cX8Sxmi7AEaXimKrH1I7zIDulaZOoaQZeZSuGXgkAmlVp8JLQW0XMF2y345gHIMmQ+ZyTYwtNRe0yqefjkbHZqMxIl0SensnzMcyWzcDKJ1BLrXsjy93ayEctCBGXIxI2cJWxfR/S55a3ImLHZqe3Jrw31EZgneL5KaUYmUZqwEH7YIXsi1bJokpVegswN4VIwDR2dRkxBNXNEJn2philHWkKerTKSkkmklrsWfvdCnkj5IqnpdjqZtAuEaPbhY2vaEM2Jr6dT2xUj8/nCZKLUCqWcHFQ/ui5VZIKcTKZjeFVE/WgCWlT+dWqrYuu3ftlljntFwTKJMcPMWp1PFp1jJ5K5IqahbBnirkgb0CJK6L+hgOo2alNPngGYuzTTXYqEIU8iM3Y4Zv+SGw0hU9rXGFAyu8Q00jc0ofvT85tGCJWCQU+Mvq/SoDSZ+FgKBZP5orR7Q5qR3mH2sN4cJ/u88zXkUZDpKiYA6fild0hlKqgsmcp6uk52VX3YGnc9wnZSWx1BreazJaoryFR5UYjg0l9rJniNEpxApnLHgnfW141MCJnULLV1Oegs6eVsJZFIZvaqVMF21BaW/lqbUDW8AmSi5lLIECRTb4Izf+YzdcGpY658g6rUP35jMGic6IPLyLSwDUAoz3sk01BvUJbMTgfZlEUMkqlv+D+kZDr5TK2pc1hOrQ7eNvXELdX5Gp9AKJpGb5uMTXniZ3s2U5BbDFskyDeN9siFYl0WmZksbMGmnbg3PYA5ua26YEC1/jAGGueTzgtbTtRoJ4aiOAlei8jMXTkFFL0fzNuVY6qo1vQy06Fk8spxW3oWMZ5rwYr8ZPgsBptCWBYsmaRk4gSxXGFy425Sr81R8p++nUTvr0RZJgINtXYbGragW98DV7zH02soebNtWB6twZ4qrB4WTHdhjg60j12hITepk9HuKl7/gUyaEStMg2ye6Vu3EUPn8Js5T8wAOGZ+1PzxWhkBCRPX3ugZFAfjSxRqTsxdcN84QYR3kbn5PdEFIj91Ga8R7uw9Ide5nb8oyHbmQKbYbsOKNEl36rR7M9AHjN1xLfC0yUbQ1NxbTyZ1KnCxuww1BzLQc0v4M5eo/njqIabua7uqL2hALUZfmmBxizxwTfmvFvytTN9c004iHZnEXrFtJmlweKHo6UyBxkApMmnzWubs8PUSIAUNQaSiwJjOTimi9Hnmdmf5nUvFGBBaDVxMUKGm1KosqFImbEEjJsw5sMDY0Ez5DDRQfpSrndwk7MON+rMTkl1zK/dFMn18PVxsEk+6SnbxsH4ZMonvgTe2pTE+VderLp2FRzKD/JT25AknoXoS266YzlkiDZvMMEYa3f3Jy220Z5n0pcik9hH9qa/z4Sf4YGRkGt+gTCiXtdhLImdlurDqTafdHUsKyM0dlpMQ0ANjs90OeSRbdOEOQzYPSpJJRQmNJLAYtyC5fCFlB82nkRgFFmBnyzaYS6UrX+k8Gi7oRUqUruCCZhFKVrUHv0SnN74EwVOSTFLxyXyqrOMteDRAKdWgUVt0Y2z56JEnGDL7km2annS6oBiZ1MahFvqevr4QntutQRA03p2ZtEzKkknsI5Yfw1wXkdH4NX5pBI2XcVfOfmWG/VhTlnJIb+UC0NFKMaIYDdsGHZlM4hOxyXdpmPEjS/rSZFL7iLqCm0z+WW56Z1eeefxx/a0i2TieCU2980FyqDgaLVKMTBLEZu8ipyeiJ2bBnU4mU38kZpiXBYdLQ5w7wYfUtxlgIYcje7gmpOgr+bSD+VsY6jRsC0+nAr9rYtP7E/MzS5BJlA37jIL4rVgO+MyoUCzE166bCaJIRswcVfwMg/Py7MOV6pr1uZpMmnJA5b0h29WSM4cTnFhUhe6BkG7gWqbM4SnztCsQfCSDsPYDja2I71B22OIeLCf7UFNtQfLymDg25LS3SjuH2fB1FdVDfQXPUigQUODfGp7ss4Yncso2ha4OCB373Isz1lVbtMp72uvqv3OxGVdbqCanJVdbKPBvrXiyDW3JVjw0h4s5v4OlTKcNTVUdUIKTayfnarGprgOCg064MJlFm0R1spRmwSAlRV+CPzgu7aABKRfS4g+sUKPrc579lUck+ryqDOGTO/OH99vcHIoUc5J0O9FdC29mJpMsc4UbOAuf5vSVaGQQt0p4pCHqt6D/i6MPv452WaC8Fv6Va9ERXl+4PDki6YtWb4e3/uunN/K110pxrsZ6Gvfjv6LRenIc50nXdOmCGMXt+Zz+6ynf2c0lkySmSUFQxygDHg+nNCOVXOrEK1k1I62d2CZXCBluyaHq00C1AmRSDyNPfqXJ/AXiQA+A/NbiZP4xM5GVelSfqYx2T5/P6byzN2ONg5fVAsNPkmIUODSoUX1ZseZHhJA6Qm3uUJd6ZW2A1WJWFz7HcNF+rfeAvrRtCtNeFALED1vZnhD61SZ7PgoCZTaMuk2EKi+c4tG/RatzNVnKQKPRXfvwi9zQPkGZiaXpHZOckN8j6v8aRve8MttFz+ajc5kTOFLGbXvqc+xHX+OsNFbJpkqhTBTRYQvq+nT6x4AQSw2l0LDa1PF7gi1lS67exwNLA7EAlu2+0+vw5qLqJOhgGvEXxk00rDh7a+VUH/uiVX8h9FNChjO6PdTWNL04m28vmqHrr/4pXtP/W1Av0Jrsx1lt2sN/z7gYiH8ynLEjZKOjK52vwIEeNSlHlTjVKjdQIez1+UE0O+zRTZ5C8MnElA6SdgDVhyQLABsJKMquSfH8w38ZugiGpsnnm5iuIAGVuaq3njF9o4IIQqYi1I1kVrZRAZBlLm+sMUtLW0BYgQBjjYp2JhMT0xVkmLIwSFGttllpBQJMxJKWMs0xr74KXQS03kRIa8PiiWt88fL/ASRBQ2g1T3t9VzZ7MWBHM/KBr4hkWtiXUyNV4QjaxawO30mK0fCLutrD37yLVEjB4mk2gPW9Al7l+egpGidAKPWsW7YQxYXKYi+OT21GQTJZDV3tKkiYGdmstM9p+DF9E+1cjYYfBf5KX+pZbSRPhqa/kVsFf8pA9SFpG34LfserAkcgNvII4acSl6URfHpxGzjLsuw4e2tZUflvGLxtl+uf70XXea+ysE7A/wBvCd2ISmDObQAAAABJRU5ErkJggg==;" vertex="1" parent="qTHWxoSnpV-X286SpZp5-30">
          <mxGeometry x="140.86" y="80" width="99.14" height="45.38" as="geometry" />
        </mxCell>
        <mxCell id="qTHWxoSnpV-X286SpZp5-28" value="" style="shape=image;verticalLabelPosition=bottom;labelBackgroundColor=default;verticalAlign=top;aspect=fixed;imageAspect=0;image=data:image/jpeg,/9j/4AAQSkZJRgABAQAAAQABAAD/2wCEAAkGBxISEBUSEhMWFhUXFhcbFxcYFxgVFxsdFRoWGhgWGBobHiggGBolGxUYITEhJikrLi46GB81ODMtNygtLisBCgoKDQ0OGg8PFzcdFR03LzcxKyw3MTAxNzI3Ni03KysyLTUrLzc3LS0tLSszLzcvLC4tLzIrLS0rLy0wLjIrN//AABEIALIBGwMBIgACEQEDEQH/xAAcAAEAAgIDAQAAAAAAAAAAAAAABgcFCAEDBAL/xABEEAACAQMBBQYDBQUFBgcAAAABAgMABBESBQYHITETIkFRYXEygZEUI0JSoWJygqLBFTNTkrEIY3PC0fAXNENUstLx/8QAGgEBAQADAQEAAAAAAAAAAAAAAAEDBAUGAv/EACoRAQABBAAEBgEFAQAAAAAAAAABAgMEERMhMfAFEiMyQVFhcYGhwfEU/9oADAMBAAIRAxEAPwC8aUpQKUpQKUpQKUpQKUpQKUpQKUpQKUpQKUpQK6ridUUs7BVHUnkK7KgHEu+OqOAHlgs3qc4X6c/rWHIvcK3NbPjWJv3Yt9Npjs7a8E+eykDEdQOvXGceVe6qR2betBKsqdVOffzB9DVx7Jv1niWVOjD5g+IPqDWDEy+PExPKqGxnYU48xMTumXspSuM1utBzSuM1zQKUpQKUpQKUpQKUpQKUpQKUpQKUpQKUpQKUpQKUpQKUpQKUpQKUpQKVxXzJIFGSQB5k4FB9Gqm35n1X0mPwhV+gGf8AWp1tDe+0iyNes+Sd79elVjcyme4ZvGSQkZ/abln61yfEb1NVMUUzudu14VYrprm5XGo0y+29gmO1t51HJkGv3bmrfQ4+ld+4+31t3ZJWxGwyPHDD/qP6VYktijwdi47pQKR6AY5eVVrLubddqyImVBOHJABHgfPpXzex7lm5TctRvv8At92Mq1kWqrV+dfnv6Sa+3/gXlGjufP4R+vOo9f78XL/BiMegyfqa90G4mhS9xOFUDLaRnA9z/wBKie0Oy7QiANoBwCTlm9fn5VjyL2VEbrny7+I6suLYwqqtW482vmenf7M5u5vDdG6jUyM4dgCpweR6npyx1q06iO5O7fYr20o+8Yd0fkB/5jmpdXQwqLlNv1J5y5fiFy1Xd9KNRH18lKUrcaJSlKBSlKBSlKBSlKBSlKBSlYbeXee1sI+0uJAufhUc3Y+Sr1NBmaVUsvG+LV3LOUr5tIqt8xgjPzqX7n7+2m0CUjLJKBkxSYDEeJXBwwHpQSulKUClKUClKUClKUClKUEP3z3oe3cQw8nIyzHngHpj161A7m9nuG77NIx6Dr9AKn++W67XBEsRHaAYIPRgOnPwNV3dWskTaZFZGHmCPp51ws7jRXPm9n8PR+G/88248muJ876/4zmz9yrqTBYCMftHn/lFSfZW4sMbK7uzspBH4VyOfTr5fSolsfeW7jYKjGQHACMNXyHiKsLZW3A8iwS6VuChdolOoqoIGX5dzJPIHrg+VbGHbxq+dNM7j7701s+7l2+VVURTP13tmMVwa+q+WGeVdVxVa77bydsxgiP3anvEfjI8v2R+tercXdvURcyjkOcanx/bPp5VH96NlfZrlkHwnvIfQk8vl0qdbh7W7a37Nj34sD3Xnp/QYri2PUyp43ujpDv5HpYccD2z1n55pPiuaUrtOAUpSgUpSgUpSgUpSgUpSgUpSgxe8u2Fs7SW5fmI1JA8z0VR7kgfOtZL6+ub+5DSEyzysFUDplj3UUeCjP8AU1f/ABbsXm2RcKgyV7NyPMRSI7foprXawvXhljmiOHjZXQ9RlTkZ9D0+dSVhNtocJNoRQGUGKRgMtEhbX5kKSMOfTlUd3N2LeXdyn2IMroQ3bcwkWMc2bHX9jqefLGa2F3M3ph2jbCWPkw5SRnqjeI9j4HxrM2lnHECsSKgLFiFAUEtzLHHiTQfcAYKocgtgaiBgE+JA8BmuysJvXvPb7Pg7WduZ5Ig5u564Uf16CqL3i4mbQumOmU28fgkXI4/afqf0ojY7Nc1qXFty5DaluptWc5ErHmPnU93I4q3EMix38hlhJwZSB2keehJAGpfPPMU2q96V8xyBgGUgggEEcwQehFRzfbfKDZ0OqQ6pWB7OIfExHifyqPE1USTNM1rRt7iFtC6YlpzEh6RxdxR7n4m9yawttt65RtUd1MGHQiVj/qSKm102ypVOcO+KMjSrbX7A6yFjnwAdRwAsmOXP83tVws2Bk8gKqOa893ZxyrpkRWXyIz9PKqU334q3EszRWL9nCpx2oALyY6lcjur5eJrCbrb1bSmv7WI3s7K9xEGUsMFNYLjp00Bqk6nlKxuOcJXxP2p/Zjpb2IETyo7SS/FIoBACoWzpBy3ryro4Bwl7q9mYksI4gWJySZGkJJJ6n7sfWsLxpude1mX/AA4Yl+Z1Mf0YVm+FW2Idn7LvLyblqnCoPxSFI10oo8e8ze3OvmmmmmNRGofVVVVU7qncrD383vi2dblzhpnDCGPPNmHifJASMn1HnWKj36dYbWZ41YT28ch0nGCw76j2PL5VS9zPebXvs4Mk0pwqj4I0Hh+yijmT4+5xV0R7glbG2txLmSCMqWI5MWOogeSg5x6VjyOJ5J4XuZcbhcSON7Xj3n25bXkAIykqc1DDqD8S5H/fKsJuztU21wr/AIT3XHofH5HnXdtDdS7i5mPWPNO9+nWsfa7MmkcIsblicfCRj3J6Vw7ld/ixXNOq/wBOr0VqjHizNFNe6J/PRdSMCAR0PT51915tnQdnDHGeqIi/5VA/pXpr0UdOby063yKUpVQpSlApSlApSlApSlApSlBwygjBGQeoqgOJ24BsX+0Wyk2rHvKOZhY55f8AD8j4dKvW82nDEyJJKiNIwVFZgCxPQKOp6V3zwq6lHUMrDBUjIIPUEHqKg1W3c29PY3C3EDd4cmU/BIvijf0Ph9QdlN2d4ob21W5iOFIOoHqjL8St7eda+8Q92l2ffNDGcxMokj81DFhoPsVPPyIrO8NNoNFs7a5/AsCtjn8TrKhPl0C0VG99t432hevNklNWiBOuFBwuB+Zjz+Yq2txOF1vbxrLeIs05GdLDMcefwqp5E+ZPrVObn6F2hZ9p8AuIs5/eGkn+LTW1VBiNpbr2U8ZjltomUj8igj1UgZU+orXjfzdn+zr1oAS0ZUPET10tyKt5kEEevKtn6164z7USfaZSMgiGNUYg5Go5cgewYCkkJ9ws3iC7EaSduVp2ik+OhBqQc+p0kD6VTO09o3G0LvtHy80zqqJk4XUcJGPJRnmfc1O9nWrxbpzvg/fyav4C6qD7ELmo3wuaMbXtu0x8TBc/nKtpx60Fvbm8NbSzjVpUWe4x3pHUMAT4RqchQOnmcZrObZ3RsrqMxy28eD0ZVCup54KsOYPOs5XFVGqG8OyWtLqa1Y5MTlQ3QkcirehKkHlVxJt+STdR52c9qLd4i+eZYEx5z+YjB+dV1xXlDbZuseHZL8xFHn/WpFtBxFujbr4zyr+srOf5UqKhm4+xlu9oW9u4zGWy46ZVFLFeXngD51sLs/czZ8Eiyw2kKSJzVlXDDkRyPsTVN8E7TXtQN/hwyN9dK/8AMa2CJxSCWsXES5Mm1rxj4TFB7Rqqf8tYGa4cxohYlI9ZRfAFzliB5kjrXdtmfXcTyE51TSnPoXbB+mKle+G5jW9hZXsYyrQRC4wMYdgCkp9G1aT5YX5BanCrd21t7JJoWErzqGebGCf92B+FVORjzBzU2qhOEG+ItJ/skzYgmYaCTyjkPL2CvyHhzx51fYNEMVxivqlUcYrmlKBSlKBSlKBSlKBSlKBSlKBWN3iE5tZvsraZ+zbsyQG7wGRyPWslSg1HuL+aSTtpJZGlyDrdjrUr7/DgjoKs+w41yrFpmtA8oGNayaFPqV0kj5VI98eFEF3K08En2eVubjSGiY/mK8ireoPOorHwTus967hA8xG+foWqKgm8W257+6M8ozI+lERcnABOmNPE82PuSasPaW777M3bmWTAmuJI+0APTWyL2efHSo5+xqZbncNLSxYSkmecdJJAMLn8ijkp9eZ9awvH25xZW8YPN7gEjzCRyH/5FaCjz/34f/lWdu1xhmhjEd1D2+kYEitocjw1Agg+HOsfwn3Tg2gbtbhSVVIgjKcMrMzksp88KOvmazt3wRbP3N73f95F3vqpAP0FB4N5eMFxPGY7WL7PqGDIW1yc/wAowAp9edRTcndKbaVwI1yIgczTdcDqVB8ZGz8s597I2PwVhVg11cvIPyRqIlPu2S2PQYqy9lbKgtohFbxLFGOiqABz6n1PrQePa2wIprB7JRojaLs1x0XAwpHsQD8q1ivrKe0nMUoMc8TA8jzBByrqfI4BBrbWo3vduVa7RUdspWRRhZUwJB6ZIwy+hyKCu9i8aXWMLc23aOB8cbhdXqykcj7GvqPibc7QvbW1t4hBG9xHrOrXIyq2t1zgBQVQ58etfM/BKXV93eqV/biOr56WxUh3P4Ux2dwlzJcPLJGSUAUIgJVlyRzLcmPiKCnN8bntdoXci/inkx/CdGP5anXFKMwbJ2VakYIUE+eYoQpz85TWcl4LxNIZDeS5Z2cjs0xlm1EfqakW/O4K7SaItcPEIlYKqqrAlyuWOf3QKCDf7P8Ab5uLuTHSOFQf3mkJH8q/pVubduhFazyt8KRSMfZVJ/pWF3E3MTZkcqJK0vaOGLMoUjCgY5cj0z86zW3tm/abWa3LFBNG8ZYDJAcFSQD44JojU+yj1GND+JkU+eWIB+eTW2MmyontvsrqGiMfZlT0K6dOPpVd7P4MwxTxS/a5G7ORH0mNMNoYNpOPA4xVpUVqxvju69hdvbPzX4om6a4yeR9x0PqPWrc4O75/aYfsc7ZnhUaGJyZIxyB59WXkD58j41I9+dyodpxoHYxvG2VkUAsAfiTn1U8voDUY2TwhFtPHPDfzLJG2QdCYPmpA6qRkEetBZ9K4Fc1UKUpQKUpQKUpQKUpQKUpQKUpQKUpQKUpQKq3jPsK9u3tha27SqgcsVZBgtpAHeYeAq0qUFdcGd3rizguPtMJieSUEBipJVUUA90kdc1YtKUClKUClKUClKUClKUClKUClKUClKUClKUClKxS7yWZn+zC5iM3+HrGrPTHv6daDK0pSgUpSgUpSgUpSgUpSgUpSg+JpVRSzEKoGSScAAeJPhVd7Z4w2MRKwLJcEHqoCx/Jm+IeoBHOo9x33gcyR2CEhNIklAyNRJIRT5ryJx7VitwuGibQtPtMly0eWdVVFVsaDpy+rzxnAxyIqKs3dHiJZ379khaObGezkGM+ehhyb261Kr25WKN5G+FFZm9lBJ/QVRWwOFV616yyMYYoJAROuNTkEFTCPPHUnkOnOrH4tbR7DZEwz3pNMQ54J7Q4J5eOkMfkaDo2HxTs7ueK3ijuNcpwMooA5E5Pe5DAqditZOHW3ILG+FzcCQosUgURgMdTlAMgkctOv9K2F3Z27HfWy3MKuI3LBdYAY6GKE4BP4lP0oSy1KiO8vEWwsnMUkhklHWOJdbL+8fhX2JzXt3O3sj2jHJJFHIio+nL6QScAnABPmKqJDSsbt3b1tZxdrcyrGvhnqxHgqjmx9AKgl5xpslP3UM8nPrpWMe41HP6UFm0qFbt8TrC8kEIZ4ZWxpWUBQxP4VcEqT6Zz6VNaBSvPf30cEbSzOsaKMszEKo9yar3avGWyjJWCOWfBxqAEaH2LcyPXFBZVKrHZXGe0dtNxDLCCQNfKRBnxbTzA+VWPZ3ccsayROro4BVlOVIPiCOtB30rg1Fd5+INjYt2csheXxjiGth+94J8yKCV0qtbLjNYs+mSOaJScayoZR6tpJIHyNSPbm/uz7WNJJJw3aLqjWP7x3BGQQF6A+ZwOdBJ6VWcXGiyL4aG4VPzaVb5lQ2fpmp/sjakN1Cs8Dh42HJh+oI6gjoQeYoMRxFecbLuTba+17PlozrAJGsrjnqC6unOtf9zd357u8iSGNsJKjSOVIVAjhmLE/i7pGOuTWwW+G+Fvs1Y2uNZ7RmChAGbujJOCRyGRz9RXzufvdb7RWRrdJFWNgGLqq5ZhnAwxycYPzqKklK6bq6SJDJI6oijLMxCqB6k9Kgm0OL+zY2KoZZsZ70cfc5eTOV1D1GRVRYNKr/ZnF7Z0rhXMsOfxSJ3AfIspIX3OBU+ikDAMpBBAIIOQQehB8RQfVKVF959/rCxbRNKWk/wAKMdo4/eA5L8yKCUUqqG42wasC0l0+epM++M/1qZ7qb7We0MiByHXm0bjRIB+bHiPUZpsSSlKUClKUFP8AHTdp20bQjXIRezmx1CgkpJ+6CSD+8KhXD3fR9mzHUC9vIR2qDmQf8RPUDqPGtkpIwwKsAQRgg8wQfA1QXFPcNbBluLfP2d20lOvZsckAH8hxgeR5eNRV82V2k0ayxsGR1DKw6EGql4/7Q/8AK22fF5SMeQKLz/jblXHALashNxaE5jRVkQflLsQwHocZ+tQzirtXt9q3B56YsRLzz/djLEe7MaDLbh8NRtG0+0tcGPMjqoCBuSHBOSfPNTHiBts7I2bBZWpAldSgcDBVFH3koH5ix5erZqY7kbM+zbOtoeeViBOeup8u38zGqS4ybU7basi57sEaR9cjJXtHI8vjUH9yg8u4W4c20izBxHAhIeQ95mbqVUZ5nnkk/rVtwpBu/sptTmXDsVyArSSSElUAHTp18ACayfDbZn2bZVrGRhuz1uD11SkyN+r4+VVpx42kXu4bbPdjj7QjP4pCVGR5hV/mNBEoYr/bd8TyeYjvHmsUKfrpX6lj+lgW/BOIR5mvZA+nmURFQY6nvAkj5ivbuVf22ydgpeSKzGY620KCzM5KomegAAAyahm0d4Np7emNtCmmLlqjQns1Bx3p5Pxfu4+R60EN23aJDPLEsySojYWVD3W6cx5EE45eI5VsTuZtqRdjx3N/qjaONzIzrglYy2H04zkqAcY514tyeGltY4lkxPcD8bAaE/4S/h9zk1i+PO0WSyhgU/30vf65KxqW+mrTnNBWm9u81zte7VQpKF9NtAOvPkGbzcgZJPw+nOphsbgtK8Ya6uBG5/BGofHoWPU9Og/604BbNRprm5bmyKkaegfUzn3OlR9aumg1p393Jl2ZImX7SKTISTGkhlAJRx0B6keeD5VNuAW1mIuLM/AmiVPTtCwce2QD8zXr/wBoC4AtbWLnqadnHliOJ1b9ZVrG/wCz/afe3k2eQWKPHuXY/wBPrQSvi1vc1jbLHCcTz6gjddCrjXJjz7wA9T6VU24m5M21HkYPoiRvvJW7zM7d4hR4tggknzHy9/GfaPa7VZM92CNE65GWGtseXxKP4atbhNs/sdkW+QQ0imUg9fvSWH8pFBTfELcttmSRDtRKkofSdOlgY9GQRkgg6xg+hry7j7nS7SmZIyI400mWQjIGonCqPxMQDy8KlPHjaAe+ghB/uYWJGOhmYePtEP1qbcFNnCLZayYGZ5HcnGMgHQufPkv60FacQeHzbNSOVZe1jdtJyoVlbBI8eYIB+lSX/Z/vH13kHMxgRSDyVm1q31Cr/lpx/wBo961th0+8lbn5YRRj+JjWU4C7NCWc9wes0ukHP4YAVH87SfWgi/HTaPabQihzyhh/mmIJ/SNKnXBjZ4h2Usp0jtneUnpy+Fcn0Vapbeu7e72jcyICWkndYxnV8LdnGB6HSD86u/fiT+z9gNFGSNMEduh5ZGoLGCfkc0FTcQd75dp3PZx6jbq+mCMDJkOcCQj8RJ+EeANSfYnBiWSIPdXHZOcHs0UPpBHRmJwT7cqw3BXZYl2mJCuVgjZx5Bm7iH6F/oK2EoNY9+t0ZNmXCxs4kSQM0TgYJCkBgw8GGoehzVo8CdpvJYyQucrBLpj8wrKrhfYEnFRfj1eBr23hH/pwsx95mGB9Iv1qWcE7EQ7LadsjtZZHOemlO4CPTCZoOjixv+9ofsdo2JyoaSTGezVvhC+Gs4Pnge9V5uTw/udo5myI4Cx1SvlmdvxaF/Fz6sT9aj15O15du7t3rifJOegkfAwT+VcAewraqwtEhiSKMYRFCqBgclGB0oKc23wYljhL21x2sg59m6hNQ8QrAnDeWeXt1qttj7UezuY7lQdUL5I8cDlIh9Suoe9bZSOACT4DP0rU2ZPtV2wUY+0XDafQTynH0D5+VBtmDXNcAVzVQqJcT9rXdps9p7QLqV17RiurRGchnUdMg6evIDJ8KltfEsYZSrAEEEEEZBB6gig103M4gz2dzJNOZLhJgO0BbL5X4WTJ0jkcY5Dp0xXu4h8Sv7QgFvFC0UWoNIZCpZtHNRhSQBnnnPgKnG0eDdi7lopJYQfwKVZR+7qBIHpXr2FwnsLeQSNrnYHK9qQVHrpUAE+9RWN4I7tPBBJdyqVafSEU5B7NckMQemSSfpVN7wwst3dKwwwuJsg+sjEZ+RBrbIConvfw+s9oMJJA0cwGO0jIBI8AwIIbHhnpmmh5txt/Yr6GUmF4vs0amVm0lOjE6CDk8kJ5gdRVC2yNfXqry1XNx4g4+9fJ5dcBSfpWwGw9wYrWyuLSOaXFxnXIdAcZUJ3cDHwjyrH7tcK7ezuo7lZ5XaMkqrCPGSpXPJc9CaCexoFUKBgAAAeQHICqP477KdLyK6x93LGI8+Txl2AI8Mqx/wAtXnXk2ps2K5iaGdBJG3xK3Q1UUFutvxFHZPs6/hea2bIQxkB1DHJU5I5A8wQcjpWcu+K0EFv9n2XZ9jgEKzhVVc/iCKSWPj3sVmNocFbckmC5lQZ+FtMmB5AkZPzNe3Y/B2xiYNM8k+MHSxCJn1CAFh6E+FRWK4N7b2ncO4lYzWoLEyyfEHJJKxsPjGTzHRegx0r28d9kvJZxXCDIgkJk9EdcFvYNpzVlW1ukaBI1CoowqqAAB5ACvqWMMCrAEEEEHmCD1B9KI1l3G3ul2bOZEUPHIFEsZOMhScMp8GGT6HNWR/41QthY7SbtGKqoZowmpyFGWDE4yeuK9O2uDdpIxa3kkgz+AYeMfuhhlR6A1zu1wigt5o55Z3leNw6rhVTK81yMZOD60VDeN+0u02gkX+DCucHIDSnUR6EBV+oqweDtj2GyEkbI7UvKc4+E/CeX7Cg15du8JILq5muHuZg0rFmCiPA5BQB3c8gBU1bZCC0NpETEnYmJSmNSArpBXPLI60Gs08hvtokjB+03YA8ARLKFU+2gitpbaBY0VFGFVQoHkFGAPoKgW7fCi2s7qK5WeVzESVVhGFyVZeeFzyDGp/KmVIBxkEZ8s+NBrBvxevd7TuWTJLTdnGDj8GIlHsWGfnWyW7+zxbWkEAziKKNOfXuKBzx48qhGyuENtDcRz9vK/ZyB9LCPSSDkZwoPXnVjURrZxW2n2+1rgjmItMS4/wB2O8MeetmHyq2tnH+zd3AxwHjtNZ5cjJIuQD/G4FeB+D9u1wZ2uZ2JlMrAiPmS+sgnTnGamG9m7639q1s8jxqxUkpjPdIOOYIxkCitf+GOze32rbIcEITI2fERLkfPWUqe8ftp4S2tgRlmeRh44QBV/Vj9KlW5fD2HZ0zzJLJIzJp74QADOcjSBz5V1748Ooto3AnkuJUKoECqEKgAkkjUpOST+lBgeAezdNtcXBxmSUID46YlGQf4marTrGbs7ESytY7aNiyoD3mxqOSSScADxrJSLkEA4yOvl61UawcRNqfaNpXUo5gSMiYBGRF3B+oNbDbB2KIdmxWnTTbqjEeZTDkZ82JNRGw4P28c6TG5mcrIHIIjwxDaueF8TVkYqK1GvLN7eV4XBSSFyp8wUPJh6cgQehyKtjYnGoLEq3dtI8g5F4imlvXSzAqfMdKnm9e41ntAhpkIkAwJUOl8c8A+DDn0IqJf+Cdt/wC6nx7R/wD1oONpcSvtOy76eOExqhSFNbDUzzYB+HIGlW1dTUD4R7M7basBwdMIaRiOg0qVTP8AEw+ldvECW1tkTZdizPHHI0twxbVqmKqgXPQ6VXmMYGR6gTTgPsMpDLeuuO1ISIkcyidWHoXJ99IoLXpSlVClKUClKUClKUClKUClKUClKUClKUClKUClKUClKUClKUClKUClKUClKUCuDXNKDXXbXEi/W+ujb3WmPt3CphJFCodAI1rkA6NWOXWsTtDfjaV0DC93I4OcpGEUn0xEoYj0rY293ftJjmW2hc+bRqT/AKV6LPZkEX91FGn7qKv+gqaXaktx+FE07CS9VoYB0izplf0P+Gnn+I+lXpbwLGioihVUAKoGAAOQAHlXZSqhSlKBSlKBSlKBSlKBSlKBSlKBSlKBSlKBSlKBSlKBSlKBSlKBSlKBSlKBSlKBSlKBSlKBSlKBSlKD/9k=;" vertex="1" parent="qTHWxoSnpV-X286SpZp5-30">
          <mxGeometry x="273.89" y="76.41" width="85.2" height="53.59" as="geometry" />
        </mxCell>
        <mxCell id="qTHWxoSnpV-X286SpZp5-22" value="" style="edgeStyle=orthogonalEdgeStyle;rounded=0;orthogonalLoop=1;jettySize=auto;html=1;" edge="1" parent="qTHWxoSnpV-X286SpZp5-30" source="qTHWxoSnpV-X286SpZp5-18" target="qTHWxoSnpV-X286SpZp5-19">
          <mxGeometry relative="1" as="geometry" />
        </mxCell>
        <mxCell id="qTHWxoSnpV-X286SpZp5-23" value="" style="edgeStyle=orthogonalEdgeStyle;rounded=0;orthogonalLoop=1;jettySize=auto;html=1;" edge="1" parent="qTHWxoSnpV-X286SpZp5-30" source="qTHWxoSnpV-X286SpZp5-19" target="qTHWxoSnpV-X286SpZp5-20">
          <mxGeometry relative="1" as="geometry" />
        </mxCell>
        <mxCell id="qTHWxoSnpV-X286SpZp5-32" value="" style="group" vertex="1" connectable="0" parent="1">
          <mxGeometry x="220" y="-5" width="100" height="120" as="geometry" />
        </mxCell>
        <mxCell id="qTHWxoSnpV-X286SpZp5-6" value="BitMEX Crypto Exchange" style="rounded=0;whiteSpace=wrap;html=1;" vertex="1" parent="qTHWxoSnpV-X286SpZp5-32">
          <mxGeometry y="68.57142857142857" width="100" height="51.42857142857142" as="geometry" />
        </mxCell>
        <mxCell id="qTHWxoSnpV-X286SpZp5-31" value="" style="shape=image;verticalLabelPosition=bottom;labelBackgroundColor=default;verticalAlign=top;aspect=fixed;imageAspect=0;image=data:image/jpeg,/9j/4AAQSkZJRgABAQAAAQABAAD/2wCEAAkGBxAPDxUQEBITFRUQGBcVFRcVFRAVEBcRFhUXGBUWFhYYHiogGholGxcXJTEiJSkrLy4uFx8zOzMtNygtLisBCgoKDg0OGhAQFy0dHx8tLS0vLS0tLS8tLS0tLS0tMC0tLS0tLS0tLS0tLS4tLS0tLS0tLS0rLS0tLS0tLS0tLf/AABEIAOEA4QMBEQACEQEDEQH/xAAcAAEAAwEBAQEBAAAAAAAAAAAABgcIBQEDBAL/xABNEAABAwICBAgICgcHBQEAAAABAAIDBBEFEgYHITETFCJBUWFykxYXUlNxoaLSIzRUc4KRsrPR0xUyQmKBkrEIM1WUo8HCNUN0g7Qk/8QAGwEBAAIDAQEAAAAAAAAAAAAAAAECBAUGAwf/xAA1EQEAAQIDBAkDAwQDAQAAAAAAAQIDBBESBSFRoQYTFDFBUmGRsRUW0UJTcTKBwfCS4fEi/9oADAMBAAIRAxEAPwC7F5pEBAQEBAQEBAQEBAQEBAQEBAQEBAQEBAQEBAQEBAQEBAQEBAQEBAQEBAQEBAQEBAQEBAQEBAQEBAQEBAQEBAQEBARH8ibgTckTcCbgTcCAgICAgKAQFIICAgICAgICAgICAgICAg5ek9eaaimmBs5jDk3HlkWbs7RC87tWmiZZeAw/X4mi3PjMZ/x48lPeHeKfKj3cHuLW9qu8fh9A+39n/t85/J4d4p8qPdwe4o7Vd4/B9v7P/b5z+Tw7xT5Ue7g9xO1XePwfb+z/ANvnP5PDvFPlR7uD3E7Vd4/B9v7P/b5z+Tw7xT5Ue7g9xO1XePwfb+z/ANvnP5PDvFPlR7uD3E7Vd4n0DZ/7fOfymGrTHK6tqJDUTF8cTBsyRNGdztm1rQdwdzrLwt2uuZ1TuhzvSDAYTCW6ItUZVTPGe73WKsxywg+VVOI43SO3MaXH0NFyr26JqrimO+VaqsomVLHTnEzt4yRfmEdPYdQ5C7iNjYOI30Z/3n8tFOMveY8OMT+VO7un9xT9Hwf7fOfyjtl7zfDzw4xP5U7u6f3E+j4P9vnP5O2XvN8LK1fVlTUUfDVMhe573ZbtjbZjbN/ZA5w5cttazZs39FqnKIjf397a4Ouuu3qrnNJVrGWICAgICAgICAgICAgIIJrerslHHCDtnkuR0sj2n2ixYmMqyo08XSdGLGvFVXPLHOdyolrH0AQEBAQERK4dUdDkoXS888jj9FnIHrDltMJTlbz4vnvSa/rxmjyxHPem6ynPCCM6xq3gcOlF9s1oh9I8r2Q5bTY9rrMVT6b/AGYmNq02Z9VKru2hEHjjYX6FEk9zQOj9Dxekhh542NB7Vru9ZK+c4u71t+qvjLpLNOmiI9HQWO9RAQEBAQEBAQEBAQEBBT2tut4SubELWgjHpzvOY+rItZjKs68ne9F7OjDVXPNPwhCxHTiAgICAiKpyhofRyh4vRwQ87I2h3atd3rut3bp00xHo+TY2912IrucZl0VdiiCtdb9btgpx+9I71NZ/zXUdHbX9dz+IaraNe+mlXK6dqxB1NGKLjFbBFzOkaXdhvKd6gsPaF3qsPXX6Tz3PbD06rtML8Xzx0URkIkQEBAQEBAQEBAQEBAQZ40jruMVk03lyOt2QcrfUAtLdq1VzL6rs6x1GFt2+Ec3OXmzxAQEBB1NFqLjFdBFzOkBPZbyneppXpZp1VxDX7Uv9ThLlfpl77mhFusnyuBAQUjrAreGxGU32RWiH0Bt9ouXd7HtdXhafXf7tBjK9V2fRHVtGKIJxqmos9XJMd0Mdh2pDYeprvrXP9IL2VmmiP1T8Nhs6jO5M8FsLkG5EBAQEBAQEBAQEBAQEHK0rr+L0M8t7Fsbg3tuGVntEKl2rTRMszZ9jr8Vboy75j28eTPYWkfV4h6iRAUAgKROtUNDnrJJiNkMdh23mw9kO+tZmDpzqmXK9Kb+WHptR+qc/7Qt5bJwog+dVUNijdI79WNpcfQ0XKvRRNdcUx4q1VRTGbO00zpHF7v1nkud2nG59ZX0m3RFFMUx3RGTmZmZnVL+FdAgtvVTRZKJ0p3zyEjsMAaPWHLi9u3teJinyw3Wz6NNvPjKarSM8QEBAQEBAQEBAQEBAQQTW9XZKNkI3zvBPYYMx9rKsTGVZURDpOjFjXipueWPncqJax9AEH1o4DLIyNu+RzWD0uIH+6mmM5iHhiLkWrdVc/piZXM3Vzhttsbz/AOyT8Vtey2+D579xY/zx7R+Hvi5wzzT+9k/FOzW+B9xY/wA8f8Y/B4usN82/vZPxTstrgfcWP88e0OxgOj9NQtc2naWiQguu5ziSBYbSvS3apt9zX4vHX8XMTeqzy7tzqL0YggjOsat4HDpQN81oh9M8r2Q5bPY9rrMVT6b/AGYmNr02Z9dylV3jQiAVEzkNAaPUXF6SGHzbGg9q13eslfOsXd62/XXxl0lmjRRFPB0FjPUQEBAQEBAQEBAQEBAQU7raruErmxAi0EYB6nv5R9nItZjKs68ne9F7GjC1XJ76p5QhKxHTiCT6taLhsTi6IQ6U/RFh7TmrIwtOdz+Gi6RX+rwVUeNWULxW2fOBAQEBAUSK11v1u2CnB3ZpXD2Wf811PR6z/Xc/t/lqto191PBXK6dqxB1NGKLjFbBFzOkaT2Wct3qaVh4+91WHrq9Pnc9rFGu5TC/F88dGICAgICAgICAgICAgIBQZ40kreMVk83lyOt2QcrfZAWku1aq5l9V2bY6nC26OEfLnKjPEFnam6HZPUEby2JvTs5Tv6tWwwVO6ZcT0rv8A/wB27UeG/wDwspZzkRAQEBAQUjrAreGxKU80WWIehg2+0XLu9j2urwlOffO9oMZXquz7I6toxRBONU1Fnq5JiNkMdh2pDb+gd9a5/pBe02Yoj9U/DYbOozrmrgthcg3IgICAgICAgICAgICAg5WlVfxahnmvYtjIb23clvtEKl2rTRMszZ9jrsTbt9+c7/47/hnsLSPq0Q9RZ4iF6auqHgcNh6ZQZT9M3b7OVbfD06bcPmW27/XY6uY8Jy9tySr3akQcnSDSKnoAwzlw4QkNDW5ictr/AMNo+tZeEwV3FTMW47njev0WstU97jeMfD+mXuz+KzfoWL4R7sf6hZ48pe+MfD+mXuz+Kn6Fi+Ee6fqFnjyl47WRh9thlJ+bO/60jYWLz7o90TtC14fCop5jI9z3b3kuPpcST/VdlboiimKY8MmmqnOZqfNeiogtvVRRZKJ0p3zyOI7LOQPaDlxm3ruvE6I/TH/bdbOoytzPFNVo5ZwiRAQEBAQEBAQEBAQEEE1vVuSjjhB2zSC4/cYC77WVYmMqypy4uk6MWNeKmvyxznd+VQrWPoD1B9aSnMsjIm75HNYPS4gf7q1MZzEPC/ci3aqrnuiM2kKeERsaxu5gDR6Giw/ot3EZbnySuqa6pqnvne/tSqIKj1rVvCVrYhugjH87zmd6gxdlsCzpsTX5p+P9lpdoV53Ijgha3rAEBAQEAqJGgNHqLi9JDD5EbQe0Rd3rJXznF3OtvV1cZdJZo00RDoLHeogICAgICAgICAgICAgp7W3XcJXNiBuIIwD1Pfyj7ORazGVZ15cHe9F7GjDTc808oQhYjpxBJ9W1Dw2JRdEIdKfoiw9pzVk4SnVcj0aHpDf6rBVR5piF4ravnIgJHeM/6QVvGKuabeHyOI7AOVvsgL6LgbXVYeij0c3eq1XKp9XPWU8hAQEBB09GKLjFbBFzOkBPZZy3eppWHj7vVYeur0+dz2sU6rtMeq/V88dGICAgICAgICAgICAgIBQZ40jreMVk83lyOt2AbM9kBaW7VqrmX1bZtnqcLbt8Ijnvc5ebOEFnam6HZPUHnLYm9Oy7n/1b9S2GDp3TU4npVfzqt2uGcrKWc5EQczSeu4vRTy87Y3Ze2RZvrIWVgbXW36aOMw8cRVpt1SoIBfRXOSICAgICCcapqLPVyTEbIY7DtvOz1B31rn+kF3TZiiP1T8Nhs+jOuZ4LYXINyICAgICAgICAgICAgIOXpTX8WoZ5udjDl7TuS31kKl2rTRMszZ9jr8TRb4zH5Z6AWkfV4eol4gvXV1Q8DhsPTKDKfpm49nKtvh6dNuHzDbd7rsbXPDd7bkkXu1Qgg+tmtyUjIRvmeL9mPlH2i1b3YFrVfmvyx8tftCvK3EcVTrsmmEzBMwTMEzBBbmqiiyUTpeeeRx+izkD1h31rjNvXdeIijyx87262fTlbzTRaNniAgICAgICAgICAgICCL6xMNqqukEFMzMXSNL7uY0ZGgn9oj9rL9S8MRRVVRlS3GxMTYw2J629OURE5fz/5mrfxfYn5gd7D7ywey3OHN1/3FgPPPtJ4vcT8wO9h95OyXOHM+4sB559pejV5iZNjCADsvwkJsOnY5IwlzgrV0jwMROVU+0rsp4RGxrG7mANHoAsFtIjKMnzyqqaqpqnxf2pVEFf6w9H66tqGGCIOjiZYEviby3OJdsJB3BvrXRbIxuGw1uqLlWUzPDw/3NrcZYu3ao09yK+AOJ+YHew+8tv9bwfnn2lh9iv8OZ4A4n5gd7B7yfW8H5uUnYb/AA5ngDifmB3sHvJ9bwfm5Sdhv8OZ4A4n5gd7B7yfW8H5uUnYb/DmeAOJ+YHewe8n1vB+blJ2G/w5ngDifmB3sHvKPreD83KUxgb3DmtvR+g4tSQwHfHG0O6M9uX7V1x+LvdberueEzybizRooin0fvWO9RAQEBAQEBAQEBAQEBAQEBAQEBAQEBAQEBAQEBAQEBAQEBAQEBAQEBAQEBAQEBAQEBAQEBAQEBAQEBAQEBAQEBAQEBAQVrU67MLje6N0dXdjnNNo4rXaSDb4TdsU6R8/HnhPm6vuovzFOkfoo9deDyGznTxDpfESP9MuPqUaRPcNxCGpjE1PIyWN25zHBzT1XHP1KMh95HhrS47A0Ek9Q3oIpoTrApMXkmipxI10G3lgDPETYPFt23mO3aOu0zAlygRbRDTqlxWWaGnbM11NbPwjWNbtcW8nK432gqchKFA+NdVNhifM65bExz3W35WNLjbrsFIrbx6YT5ur7uH8xTkLAwDGIa6mjqqd2aOUXF7ZgdzmuHM4EEEdSrkP3oOHpfpXS4TTioqi6znBjWsAMjnHflBIFgLk7ebpsFOQiVFrqwuaVkTI6vNK5rG3jiAzOcGi/wAJu2ppFjVEojY553MBcbb7AXNvqQVmNemE+bq+7h/MU6TN749MJ83V93F+YmkPHphPm6vu4vzE0jraLa0qDE6ptJTsqA94cQXsjayzGlxuQ8ncOhRMD+tKdZ1HhdSaaqhqg6wc1zWROjew/tMPCbr3G0A3BTIfr0M1g0OLvkjpuEa+IBxbK1rXOYTYubZxuASAe0EmBK1AiumesChwh0bKnhHPlBcGxNa5wYNmZ13CwJuB6CpyH5NFNZdHitRxelhqi4Auc5zImxsaOdxznebAWF7n6mQmqgEBB6EGfdTuHQVGNVrZ4Y5WtbKQJGMe0Hh2i4Dgdu1WnuQurwVw75DSf5eD3VGaX4MY1f4VVxlj6OFt9zomNikaekOZb13CZiqtXBmwbSOTCs5fFMXsN9gNozLDLby8oyntHoCtKF9kbNqolw9HNG8OoXSOoYYo3TG8hY5zjvJAFycrb35IsOpTOY7BqYwbF7ARzFzQfqTIUjqDmY2uxAuc0A5bXIAPwr9ytKF2cbi84z+Zv4qiX4tJCDQVJG0GCb0W4JymBjVXQtXUTpnxSpNBO60NU4cGSeSyo3D+D9g9Ib1qJgaHe4NBJIAAuSdgAG8lUSytrU0vOK17nNPwEF44B0tuM0npeRf0ZRzK8IR7Rj49TfPw/eNUjYWLfF5fm5PsFU8UsWMbc26diuhbbdQtaRfjdNt6pvdUag8Qdb8rpvqm91RqgSXV5qoqsLxBlXJPA9rGyNLWcJm5bC0WuLbymYlGtPQsYtRWYBxinu+A7Np/aiJ6HWHoICiJGa9H8Ynw2sZUxXbJA7a1wIuNz43joIuCrjU7dMaM4X+lM/wOTPzZ8+7greXn5NulUy3jLeP4vUYpXPqJAXSVDwGsbtsDZrI2DqFgOn0lXGldWOhrcIogxwBnms+dw8q2yMHyW3I6ySedUmUpgoBAQehPEZ81QYpT0uNVr6meKFrmygOlkZG0u4cGwLiBew3K8xuQufwxwr/EKL/M0/vKuUpc/GdY+EUsZkNZDKQNjIHsmkcegBhIHpJATKRBNWODVWI4tJj9VGYo3ZjA05gXFzODbl6WNjJGbnJ2c9pmULlfuPoKqlSv9nb++xH0w/anVqkJLpJqfo8QrJauWeoa+dwcWs4LKLNDdl2k8yiJSqrVnoFT4tU1UM0srBS2ymPJc3e5u3MD5KtMoWF4hcP+U1X+h7irqSsDFqUQYVNC0kiKlkjBNrkMgLQTbn2JHeMg0UIklYw3Ae5rTbfYkDYrodjTTRyXCa6SlffknNE/y4iTkeOvYQegtKCbaR62ZKrBI6MFwqZbx1T7EAwtA5QO7NJsv0Wfs2hRkIjolok+viqqg3bDRQySucB+tKGOMcYJ2bxc9Q6wpHL0Z+P03z8P3jUGwsW+Ly/NyfYK8/FLFsZsQegheiGjma78JAAy1Owebb7yrkPfHhhPk1Pdt95NInWjeNxYhSsq4A4Ry5sucAO5Li03AJ5wVWYS6SChtfWhPBP/AEpTt5EhDakDc2U7Gy+h24/vW8pXiUKoGLT8W4pwjuA4TheD2ZeFy5c3Tu/gpFv6h9CMx/StQ3Y0ltM0jedzpv4bQ3rDjzBVmReKqkQEBB6E8RmjV/olTYti1ZDVGQNj4V44NzWnNwwG0kHZYlXmckLK8R2EeVVd7H+Wo1D4VeorDHNtFNVMdzEuie3+Lcgv9aahxYNIsT0aroqPEZuM0cthHKb52xg5S5pPKBbcXYSdm486d4utxBaSNxGy261lVKlv7O39/iXph+1OrVIXYFVKkNQHx/Efo/evVpQu5VS5uk3xCp+Ym+6cpgY+wn4zF84z7QV0NNa2tC/0rRF0Q/8A0U2Z8NrXeLcqI9qwt1gdapEpZowjC5qqoZTQsLpZXZGt3becnoAFyTzAFXQ0zU6ORYXo7UUsVjkppi99rGSUxHO8jrO4cwAHMqeIzXoz8fpvn4fvGq42Fi3xeX5uT7BXn4pYsY25t07F6IW43UJWEA8bp9v7sv4KNQ98QdZ8rp/5ZfwTMXBoJgT8Nw6Gjke17oc93NuGnNI5wtfbucFWUu+oFRa99NhBD+jID8JOAZz5EB3M7Trfy9oK0IUDkNs1jYm1+a/OL9O1WGgNRGmvGIP0bOfhacXgPlwD9jrcz7NvJJVZFtqqRAQEHoTxFD6jv+uV3Yl/+hqtPchfCql4goXX3i0VbV0tBTFskkRcH5dtpZSxrYwR+1ydo62q0IXnBEWQtYTcsYGk9YbYqvilTf8AZ2/v8S9MP2p1apC7AqpUZqLmbFi2IU7zaR2aw6eCmcHi/SMw9fQrSheSqlzdJviFT8xN905TAx9hPxmL5xn2grobUXmlGcK0IpKbEp8SjbaWoFrW5LHE3le3955y3+l5RU5j9OnX/Sq3/wAab7tyR3jKGjPx+m+fh+8arobCxb4vL83J9grz8UsWRmxB6CF6IacZrjwWw+Hk3D/szfgqaR7448E8/J3M34JpHS0e1j4ZiFQ2mppXukeHEAxSNFmguO0i24Jkl+3TnSiLCqJ9TJYu/ViZexklI5LfRzk9AKQMrQsqcUrbbZairk3nne47SehoF/QB1K6GjKvVnTuwQYY3KJGDhGy22msttkP7rv1bczTbmCrnvGcYpanDqwOGaKopZOfe2Rp2g9I5ugg9BVhq3QnSeLFaJlVHsJ5MrL3McwAzNPVzjpBCpO5LvKAQEHoQUZBqpxunqZaikrIITM5+1kkzXZHPzZTZnoVs0P3+BGlX+LN76o9xM4Hzl1daST8ifF+QdjrTVRu07+SGgO9BKZwJVoHqspMKeJ3OM9QBYPcA1jLjaY2bbHrJJ9G1RMpTxwuCOlQK91VaDVWESVbqh8LhVcGWcG55IyGUnNmaPLHrVpkWGqiqdPdV081Z+ksKmENQXZ3tLnMvJzvjeL2cecHYbnbtKtEocukwTTKpvHNVcXba2Z0lMHWItyTTguv13CbhbmJ0bpaSWAEZpIXxguvbM6MtBPPa5VUqLotR2JRyseZqSzHNcbPmvYOBNuQr5whoNUS8Qc7SSgdVUVRTsIDp4pI2l1w0OewgXI5tqQKSwnUliUFTDMZqUiKSN5AfNchjwTbkb7BXzhC+K6IvikY213sc0X3Xc0gXVEs+DURifn6T+eb8tXzQeIjE/P0n883uJqDxEYn5+k/nm9xNQk+rjVXXYXiMdXNLTuYxsjSGOkL+WwtFgWAbz0qJkffWVq9xbGKzhRNTMgiBbAwvlzBptmc6zLZnEbbcwaOZIkdLVVqzOEvkqKp0ck7hkjLC4sZGf1iMwHKcerYB1lRMiyVCVXa0tVjsUqGVVG6KOUjLNwmYNeGjkPBaDygNh6gOjbaJHw1aaAYtg9UXumpnwTDLNG18t9l8r23ZbMD6LglJmELYVUiAgICAgICAgICAgICAgICAgICAgICAgICAgICAgICAgICAgICAgICAgICAgICAgICAgICAgICAgICAgICAgICAgICAgICAgICAgICAgICAgICAgICAgICAgICAgICAgICAgICAgICAgICAgICAgICAgICAgIP/2Q==;" vertex="1" parent="qTHWxoSnpV-X286SpZp5-32">
          <mxGeometry x="22.916666666666668" width="54.16666666666667" height="54.16666666666667" as="geometry" />
        </mxCell>
        <mxCell id="qTHWxoSnpV-X286SpZp5-34" style="edgeStyle=orthogonalEdgeStyle;rounded=0;orthogonalLoop=1;jettySize=auto;html=1;entryX=0;entryY=0.5;entryDx=0;entryDy=0;" edge="1" parent="1" source="qTHWxoSnpV-X286SpZp5-6" target="qTHWxoSnpV-X286SpZp5-3">
          <mxGeometry relative="1" as="geometry" />
        </mxCell>
        <mxCell id="qTHWxoSnpV-X286SpZp5-36" style="edgeStyle=orthogonalEdgeStyle;rounded=0;orthogonalLoop=1;jettySize=auto;html=1;entryX=0;entryY=0.5;entryDx=0;entryDy=0;" edge="1" parent="1" source="qTHWxoSnpV-X286SpZp5-3" target="qTHWxoSnpV-X286SpZp5-5">
          <mxGeometry relative="1" as="geometry" />
        </mxCell>
        <mxCell id="qTHWxoSnpV-X286SpZp5-37" value="" style="group" vertex="1" connectable="0" parent="1">
          <mxGeometry x="940" y="-12.57" width="120" height="132.57" as="geometry" />
        </mxCell>
        <mxCell id="qTHWxoSnpV-X286SpZp5-5" value="StreamDatabase" style="rounded=0;whiteSpace=wrap;html=1;" vertex="1" parent="qTHWxoSnpV-X286SpZp5-37">
          <mxGeometry y="72.57" width="120" height="60" as="geometry" />
        </mxCell>
        <mxCell id="qTHWxoSnpV-X286SpZp5-29" value="" style="shape=image;verticalLabelPosition=bottom;labelBackgroundColor=default;verticalAlign=top;aspect=fixed;imageAspect=0;image=data:image/jpeg,/9j/4AAQSkZJRgABAQAAAQABAAD/2wCEAAkGBxISEBUTExMVFhMXFhsbFhcVGBocGBcaHxgXFhYaFxgZHSggGxolHRkYIjEhJSkrLi4uHiA3ODMtNygtLisBCgoKDg0OGRAQGy0gICYtNy81LTctNy0tNy0uNzU3Mi0uNTUvNS03Ny01NSs2Ny8rLy0rLTYtLS0tLS0tLTErNf/AABEIANcA6gMBIgACEQEDEQH/xAAcAAEAAgIDAQAAAAAAAAAAAAAABgcEBQECAwj/xABAEAABAwIDBAYHBgUFAQEBAAABAAIDBBEFEiEGMUFRBxMiYXGBFDI0c5GhsiNCUmKxwTNDcoKSFaLC0fBTJST/xAAZAQEAAwEBAAAAAAAAAAAAAAAAAgMEAQX/xAArEQEAAgIBAwIFBAMBAAAAAAAAAQIDESEEEjFBUWFxodHwEyKBwTJSkQX/2gAMAwEAAhEDEQA/ALxREQEREBERAREQEREBERAREQEREBERAREQEREBERAREQEREBVLjftM3vX/AFlW0qlxv2mb3r/rKC2kREBERAREQEREBERAREQEREBERAREQEREBERAREQEREBERAVS437TN71/1lW0qlxv2mb3r/rKC2kREBERAREQEREBERARcE23rTYjtXQwfxamJp5B2Y/Btyg3GcXtfW17dwtf9QuolGYtvqACRyBJA+Nj8FTeM9JlsTbPADJTsjMeU3bnDi1znC4uNWttccO9Y2G9KU0b6mR0Ie+ZwMfa7MYAytadLkDf435oLoFawzGEG7wzO633QTZt+82NvArGwrFW1D5urILIn9XccXgAvt3C4HjdUNQbc1MTKqxvPUkF0xPaYACCGDhobDktRhmPVVM1zYJ5I2u1cGned1+494QfTJro+t6oOBktmLRva3m7kOXNe73hoJJAAFyToAOJJXzlsztpVUTpHR5HmUgvMoLnEjcc17r1xjbiqrXNZUyFtPmGeOABt2313m5NuZsgvjBsTFSHSs/g5i2N3/0to54/Le4HO1+IWQ2sDpjG3UsAMh/CT6rf6iLnuFuYVT4n0rNbAIaGAxgNDWukt2ABYZWgkX7yVnx7XRYfSMp6d3pVfJ2pC05h1r9XFzh61joGjgBuQTrGsa6uSOnis6pl9VvBjfvSyW3NA+JsOK20TMrQLk2G87z3lV3spKKaXLI/0jFao3kANxCzfZ7hoxrRrbibAKXbTbQxUMHWSHM86Rxt9aR/BrR+/BBsZaoCRsY1e4E2/C0b3HuvYDmfAr0qZ2xsc97g1jQS5xNgANSSVp9maKSOJ09UR6RL25TfsxgDsxt5NYPmSeKjLsTOL1vUxX/0+ncHTP3Cd4N2s/ouL94HggnZq2CLrXHKzLmJdpYWvryXJqWiPrHHK0NzEu0yi1zflYKGNxb/AFOuEEJvRU5D53jdNIDeOMHiwEZjztytfIq8Q9PrvRIjempyHVTxue8HsQA8RfV3hZBLKWXOxrrFuYXsd4B3X5HuXqixKvEGRvZHe8kh7DBvIGrnHk0DeT3DeQEGWqlxv2mb3r/rKtpVLjftM3vX/WUFtIiICIiAiIgIojtV0hUlFdmbrZh/Lj4H87tzfDf3KscS2mxTFCWsuyE6ZI+yz+5293h8kFrbQbd0NJcPlD5B/Lis5wPfY2b5lV5jPS/UPu2mhZEODnnO/wCGjR80wTowJsZ3eQ0H/Z+S0VZQxNmeGABocQ23IaDv1tdX4sFsk6Zeo6umGu55avEMZrqnWWaV4PAuIb/iLD5LDhwp7iABqdwAJJ8AFJoKcGJ5A1jcCe9jhlv5Ob/vCl2wDm0zJq2fKyna0NDyCXZswvkABJ3gacVfbp6UpNp50y06zJkyRSsaied/n/EAh2Tk6syynqYgbZ5BlufwsadXO7gseTCmusImv/qkIBPhGBp5lWJttiMGICOalvIIA4Pdlc0tDstiGvAJFx6wGi1dPRZoqepb92Zsco5EOBjd5g28gmPBS0d1uPh90c3V5KWmleZj1+3yQ+LBLkN1LibADid1kGEt/wDFWthOzWXFpiR9lHeRvK79WDyu7/FRKlwvLRvqZBoSI4R+Jx9Z3gADbv8ABXVphnxHt9We+bqo8z7/AERR2Ejv+K4pMFzPIe4tYGucXgXyhoLiXNvqLDgVuxA7KHZTlJyg8zyHM+C29Rg1RTU75JYnMMmWNt7GzTdzy6x7OjQ3XmUy9Pi17S5g63Pvc8xHMo/PsRMGh0cjHtcLtOrcwOoI3haepwephN3RvFvvN1HxarT6NKwlstM7Vje3GD90OJztHdm18ypTW4VE7XLY826LFbDqe2XrU6mLVi0eFKbG7WOw6SSRkTJHSNy3eSC3W+8b7neO4KZbJPE8pxXFJ2AN/gMeQAO9jOQ4Aak6raYvsXFLc5WuPP1Xf5Df5qDYxsNJGfszf8r9D5O3FQnHMLK5ay3G1m3RxB/o8cno9H/MkcbPkHgNbflG/jyWFUbQOmYzDMLjcyI6OdukmJ9Zz7eqzn3fBQqppnxuyvaWu5ELIosUlha9sTsmcWc5ujiPw5t4HhZVrVk1GIijhZhOGHrKqQ/bTN3NcdH2I4gC1/ugc1YeyOz7KGlbC3V3rSP4vefWJ/QdypfY/bGHD43FlLnndvkc+wtyADdAvPH+kOvqwWZxFGdCyLs38Xk5vmEFn7Z9IkFJeKG09SdA1pu1h3dsjj+Ua+Cy9hcEmY11XVuL6ycdq/8AKZvbG0fdG4kD9lCNgsFoaQCrrKmDrBqxge1wZ32GpcpSdrpq9/U4cwhm59VI2waOPVMOpd3keSCXPrgZepZq8C7+TG8M3eeA81WWN+0ze9f9ZVlYNhTKaLI25JN3vcbue473OPElVpjftM3vX/WUFtIiICIohtvt5BQDILSVBGkY3N5GQ8B3bz80EgxrGYKSIyzyBjRuvvceTRvJ7gqf2j2/rMQeYKNrooj+E/aOG67nD1B3D4rFwvAa/GZ+vqHOEf4iLADlG3gO/wDVWZh2z1PRtEcTRcb3cSealSvdOkMl+yNoNs30dAWfUm535eHmOPn8FP6KhjiADGgWWQgWqtYjwxWvNvLLVIS+sfE/qruCqDaKk6qqlZwzkjwd2h+q0dJPMwxf+jHFZeWDPcKiPK3PnPVvZ+Nj7Nc3x3Ed4Cle3zxB6PSNjPo8bc2twHu1HrD7w1Pi5aHYwA4hT3/H+jXFbPGMXmFfUMMHpVOZu3DlJcC1rWZonD1T2d24pl4y71vUblzp+enmszqZnUT9dfKXps9hWd4noJx1jfWgm0dbi0kaOaedlO8OwKFoe7qsgmDTJDpla4a3Ftxvy00CwsHwqnzRyxURYDqHG7JI/wCtjyD8L3UnWTNmm08PR6bpopH7o5+n1/rh1yjU21O/9loca2fgkbF1lxTwNJEbdztABe2p0FrDU3UgXBVFbTWdw1Xx1vGphV9RglZVziUMFNCy3Uh/ZEbWkEEM33vqdy8dqtuXVIkp4o2iAm3Wk3c8Ag3a23ZBI33Oi3229dD1ToXSTtuftC2I/aDg3O/K0N7hv+N61ly37N8vDNa/y0Xo4afqTFrRrXh4vUZf0ImlJ3NvMpd0axfbSu5MA+Lr/sp7NuUW6OaXLTvkP336eDdP1upROdFXmneSV/SxrBDxXWSMOFnAEd67IuLEfxjZiKZpGUEfhd/xdvCgWO9H8kfahuQdcj9D/a7c5W6q96UtrpGFlHA/LlbeZzd9zq1gPCw1NuYVGasa209PaZnSu34NUg2MEt/6HfsFmUeytZIbCFze9/Z+R1+S3exOIVEj8rappkvpDUAuZIO52YG/cNVdGAy5m9qARSD1gLEHvad9u5wB8d6oaVc7M9FGofVOuPwgWHnxPyVp4fQRwMDI2hrRwAWSiAqlxv2mb3r/AKyraVS437TN71/1lBbSISq/2lxuprnmkw+4j3S1PDkWxc+9w8EGPt50hGNxpKHt1B7Lnt1DDuIZzf8AILXbG9Gznu9IriXOcc2Qm5J5vJ3n/wBqpbshsNT0LQbZ5bauP7KWIPOCFrGhrQA0bgFqav13eK3S1mJQ2Obgd/ircM6spzxurDREWljZETrhQzpEwokNqGj1ey/wv2T8TbzClsbrFes0TXtLXAFrhYg7iDvXK2mltmTHGWk1lAejvAXTTCoLsrIX6c3Otu7hYrO2y2cnikdUU8khEjyXNaS0tJ1vofV7zuWLJU1ODzOMbBNSyH1ScpBG6zrGzraajWw5LvtXjz62gimY3JF1hbPHvc149QOduy2N93EKffec0THieFEY8UdLNZ/yjn47+zI2XeRKxslXNPMTpDFK8xttvMj72IHEDTxVjqsoZm4bQNewXrKkdgkatbwIHIXHiSFIYMUEVRTUDHXLG3neTc6Mc4gnmT2if+1TmpN7TNfzTT02SMdIrbzxx8/H8pYvGpqGMAzvDMxsCSBqdwF9LqOw7Vh1FPUtAPVSEW5tzjL5lpWixPaRglkp6j7SknaHxvHrMa8XBHMA+Yt5KFcFplbk6vHWImJ8/n9fw52qxrEaR+V/VSQu9R7o7h3c4AizlHKdsFa7IIxTVR9UNuYJTv0G+N3duWNPUzwl1MJOtiPqt9ZjwdWuYOB8NxuFNNjdnPR29bIPtXDQfgHL+o8VtmsY690Tqfh6/OHmVvbPftmN19d+nyny3+HUbYYmRN3MaB48z5m5XMztV6yOsFjrPXmdy3TqI1AiLTbTbRw0UeZ5u8+pGD2nH9h3qUzryjETM6h5bYbRMooC7Qyu0ibzPM/lG9UbPM573PeS5ziS4neSdSVJsJ//AFa+1VLlc8ER2IDbjUMBINha9uZUmxPojeBeGUk8nWP6WPyKyXv3S3Y8fZCAbP0cc1SyKSTqw42DtNHfduTuueKvHAcNxCksx03XxAWAlF3AchI27reIcoLs5gkbM1DiMOXM68M9uyHHQsc7e0m2hNuXJWBgzqihtBUEy040jm3uYODZPxNH4t4481BYlET7gG1u5d1w1wIuNR3LlAVS437TN71/1lW0qlxv2mb3r/rKC0a2JsgMRI7Q7Q4lvHTkV2pKRkTQ1jQ0DkvDFcMZUMyv3j1XDe08wRqD3ghROqwjFYCfR6wvZwbM0SW/u0d8boJ0irSbFsfZpkpj35Hj9XBYcmNbQHhA3waP3JQWuur2Aix3KnZ5toXfzrf05B/xWundjzdTNMf6ZG/ogt6ppSzvbz/7WOqWbt1isLy11Q/MN7ZWtPxuLrZ0XSnUA/bQxP72XYfhqP0V9cvuzXwetVrL0jkt4KF4d0jUUmjy+I/nFx/k26ktFikEwvFLG/8ApcCfgDdW7iyia2r5hsZ4WyNLXtDmkag7itLhmzbIJJGDt0swtJG7e0j1XNPHlz3cltWuIXq2UcU5iNQftmYmfKv9t+uirxM5oMbcvUW1ZlbqAeRzakLQ0OJuZJJKXEyPjeA478z7NLr+BcrgNiLaEd6x34ZAdTDGf7G/9K2maK17Zhly9La95vFvXaqsOxLJT1EHCUMsPzNeP2v8Fm0WBVdSyNvVlrWXAfJ2RlJva282N+HFWZDSxs9VjG+DQP0XoZBzUp6j/WHK9FxEXtx+S0mz+zEVNZx7cv4juH9I4eO9bt77LzfN5LS4ltNRwX6yeO/4Qczv8W3KotMzO7S1UrFY7aQ27jddJHhoJcQAN5JsB4lV5i3SgwXFNCXHg+TQf4jU/EKGYriNdWtMknWPjB3NaerHkNNO9QnLWPC2uC0+eE62n6Ro4wY6W0j93WH+G3w/Efkq1mknqZHPcXyyWLnHebDuG4DkFkbLmL02DrgDEZA19xcWddtyDyJB8laeI7EmhqWVtI3Oxp+1ht6zDo7L321HC4G5UWvNvLVSkV8K42HwRlbVdS55YcpcwtNiS2x32O4XPkr3wFlTC0RVDutA0bL98jk+2jvHQ9x3qEbUbImN8eJYb6zSJMg3OHEjxBII8VYGzmMx1lMydn3hZzTvY8aPa7vBUUmXV0ccos9ocO9d4oAGBm9oFhflwXcN1XZB4wQZNG+ry5eC9kRAVS437TN71/1lW0qlxv2mb3r/AKygtpERAREQFiYpWxQRPllIDGi5J+QA4k7gFlrV1uGCZ4MmoaeyODT+IDi/83AbuJQVLTbKVGKVclTKwxRvddsY0cG7mh3Bulu+91M6zY2hpKKZ72NysicSbC+427Trkm9lN4IWsblaAAtXj2G+lZYnfwgQ5w4OI1bm5tG+3E25FBSOymwk9WA512MI007R79dAO8qUYp0SubEXwPPWAXALt/doBbyVsUtM2Noa0WA+fitFtvjT6eAsgGaplBbE0cODpHcmtBvc8bDigoWm2hrYTlbUSixtYuLgLaWs64W0p+kHEG75Gv8A6o2/8QFYWxPR2yICWbtSHW5H033eO89y0WA7MxvxOsmcLU8EsluXZuXHy/XwXYtMerk1rPmGnZ0m1g3xwn+1w/5L0PShVf8Ayi/3f9rV7K4GcQrXG32Wcud5kkNv+vcFYPSdsbH6AZom2kgFzYesz7wtwsNfJS77e6P6VPZDndI9e4EtjjtzDHG3zWtqNvMQf/Pyj8jGD52JV0bIYJC2ig7AN42k+Y7lWe1OAxU2NxRhv2E5YS3hZ7jG8eR1XO+3u7GOvsizZq2rDz1ksuUXc3Od3MMvr5BYGG0ZlmjiGhe8N8Lm25Typwl+B4lFNq6ke7KSR9x3rNd3j1h4KQbe7Hhj2YhSN7UTmySMb98NIdmbbjYKKXhp6zojlDLxyEutudb9tf1Xt0UvMFVNh9TGA5wzsDhxGjrHkRY/2lW1R1LZY2SMN2vaHNPMEXCifSFhuVseIRD7akcHm334gftGnn2b/NBH+kLo5DmuqKRtnjV8Y+9zLe9Sno5x70yhYXn7aL7OUHfmboCR3jXxupLBKHsa9pu1wBB5gi4USrsNFBW+mxC0EtmVTRubr2JvIk37iSgldPTtYC1os0km3DXeo/Lhpo6h1RAD1Mh//oibwPCVg5jiBvHeApMhQdWPBAINwRcEbiF2XlBCGCw3cBy8O5eqAiIgKpcb9pm96/6yraVS437TN71/1lBbSIiAiIgIiICIiAtfHhjTIZH9pxtv7vVHc0cBzuTqtgiAq+23b6HhkkMf8aqlyC29xe7NIfMZv8grBURqqA1eJh7v4NM3K0cDIdZHfAtb5OQevR/s42jpWi3bcLuPed5/9wAUjq6cSRvjd6r2lp8CCCvYBEGs2ajLaSFp3tYGnxb2T+igu3lP1mOYe0fhufAPLv2VlRxhosOZPxNz8yod6N12POfbswU7Gg/mcXOP7fFBItocGjrKZ8Eg0cNDxafuuHeCtZsDVPfRCKX+LA50Et+JZoD4FtipKtBh8XVYlUNGjZoo5R/W0vikPw6pBscLpOpBiH8MEmP8oJuW+AN7dxHJZc0Qe0tcLtcCCOYIsV3RBHdg5D6GInG7oJJITflG8tYf8cqkEsYc0tcAQRYg7iOK1eCUDopaon1ZJ+sb5xsB+YK2yDEw6Ext6skkN0aTvLfug943eSy0RAREQEREBVLjftM3vX/WVbSqXG/aZvev+soLaREQERdWyNO4g+BQdkRcOcBvNkHKLqyQHcQfArsgIurpANCQPErsgFY9FTCNthxNzz8+/efElez3gbyB4rkFByiLq+QDeQPEoOy1eE0OSWeU+tI/5ABrfkAtmDfcuUBayenPpsUgGghkaT4ujLf0K2QIO5cZhe1xflxQdkRcE2QYWOYm2lp5Kh4JbG0uIba57hcgXUa2O2/ZiFQ6FkD2BrC/M5wPEC1h48116W6wNwmUAg53xs0P5w4/JpUY6CKXtVUvdGwf73H/AIoLcRcFwRzgN5A8UHKIurngbyB4oOyLq14O4g+C7ICqXG/aZvev+sq2lUuN+0ze9f8AWUFtLExXEI6eF80psxjSXH9h3ncstV1031bm0MTAbCScB3eGse63+QafJBCKnF8Qxuq6mMlkepEYJDGM/FIR6x/fcFJ9n+iqenqoZjVNyscHPDA5rjbXKDfUE778F6dBVM3qamSwzmRrb8bBuYfNxVoXQRTpC2wbh8IygOqJL9W07hbe93cL7uJ81XGB7LV+M3qJ6gtiJIa59zmtoerjBADQdL6ea1nSdWunxWZt9GFsTe6wF/8AcSrvfNDh9CC6zYoYgPGwsAO8n5lB8941hz6OsfTxzOLmODc7LsJJAO4Hhfmrm6RdoJMPoGCI/bPtG151LbNu52u91h8SqewV7qvFInP9aWpa53m/MR4Dcry282XGIUvVhwbI12aNx3ZrEWd3EGyCqNmdhZ8ThdUmqaH5yLPzPcSOLjfs34b1Z8WfCcIcZJDNJCwm5JsXOdZjRfXKC4DwVMUtXXYRVEdqOQesw6skbfS43ObycNQrzp3xYthgJBayojsRxY4Gxt3te3TwQU9s/hFTjdRKZaoBzQHHOC7eSLMYCAGi3lorU6PdlJcPjkbLP1mZwLQ2+RoA4B24nj5KnMbwStwmoDruYbnqpoz2Xj/u29p+YVubG7ZOq8OmnkaBLA12e251mZw4Dhfl3II/0l9IUkUhpKR1nt0lkAuQfwR9/M+QWoj6MKmSB1RV1OR+QvLXAyOFhm7bi4WPhdaPo3pvScWiMna7TpXX4uF3a/3EFWh0s4+2moXRA/azjI0cQz+Y7wtp4lBW3RMZHYnE0PeGAPc5ocQ0gNIFxuOpClHTliD2upomPc0FsjnBriAdWAXA38Vqug6mvWyyfght5ue39mlY3TTV58RDOEcLR5kucf1COu2zeLVk1FDh1BcSHrHzyXtkaZHWGb7uliSNdbDiovPHUUFdYu+3hkF3NcTc3B37yCDx5q6OijAxTYeyQgdbP23HjlP8MeGWx8SVU1SfS8aPESVgH9okA+kIL12kx+OipHVEnADK0b3PPqtH/twKpmjbiOO1LgZLMbq7eIogb2AaN50NuJtvUh6da05qaH7tnPI79Gj9/ipJ0OUbY8Ma8WzSPe5x8DkA8g1HFZbc7Guw1sY9IEjZSeyGlti0b7XII13qxuhSly4c5/8A9JnnyaGs/UFV/wBKu0DauuLYzeKEZGkbnOvd5HdfTyVqbANEGDQO4CEyHzzSH9UFPDFz/q/XSyOcyOqc67nE2a17jYX7hayy8ThxPF5OvEUjoXPyx2/hxi9hbXW3F3io9gGHuq6uKHjLIAT3es8+QBK+naOlZFG2ONoaxjQ1oG4ACwR1BdvdsP8ATYI6aAh1SY2gF2oY0DLnI4uNjYeZ74hgewtdijPSamoLGv1YX3e5w5htwGt5fotBjMxrsYcHE2kqRH4MDxGAPIK89p8YjoKJ8mgyMyxN/E61mNH/ALcCjihKCkkixFtPFK7SoEeZhLcwDw0mwPK6+ll86dGsJlxanubkPc9xPEhrnX+K+i0BVLjftM3vX/WVbSqXG/aZvev+soLaUS6TNnH11Fki1ljeJGC9s1g5pbc8w4+YClqIPnXZ/EsTw572QwyNL7BzHwvcCRexAtv13hWBsPheJz1ja6vc5rWNcI43dm5cLfwx6rbc9TorKRBQfSbs7PFiEsrYnujmdnY5jS4XIGYGw0N7/FbrC8BxPFnRmvc+OljscpaGOfbTRm+5/EfJXEiCgOjjCJ/9UheYJWsa9xJLHBrey63aItvspv0g4zitJViSmaX0xjaLdXnaHXdmzBvaB3a3CshEFBV0eKY1NHngy5AQHCN0cbQSLkl5JO4aAnwU62no67DqGlZh+ZzYbiXK0OLri9yzeQXFx03XCsNEFC4vjuLYoxtM6muA4H7OF7SSLgZnPcQN/crH2O2NNLh0tPIQZZ2u6y25pczIGg8bDjzupmiD5sw6jxChqwYoZROwkC0bnA30NtLFp5qR49slWuo56+tL31J6tscY1LQZGhxIboLAmzRu1JV4Igq7oSw2WJtS+SJ7M2QNL2ltwM17ZhrvUV2qwSrrcXmyQSlrpQwPLHBgaLMJzEWtoTvV9ogxyzq4bNHqssAO5uiofoywiodiUEj4ZQxpLnPdG4NByutckW3r6ARBWXTPs9LM2KoiY5/Vgte1ou4NNiHADUgEcOahuzLMYlgNFTiRkDicznMyBod632jhe3cNVf6IPnfbLZJ9LUsghjlltCwlzWOdmec2Y6DTlblZW1ijJIcBLGscZBSNYGBpLrlgYRlGtxcqXIgproi2XqGVnpE0L42MjdkMjS273WboDr6pd8VcqIg+ddqNn6qkxB5ZFIftTJC9jC4G7s7bEA6g8O5SePZzEcRDqrES4RxRvdFFYNL3ZSQAweqCQLk6ncrjRBR3Q/hU4xBsj4ZWsET+05jg25AAFyN+9XiiICqXG/aZvev+sq2lUuN+0ze9f9ZQW0iIgIiICIiAiIgIiICIiAiIgIiICIiAiIgIiICIiAiIgIiICqXG/aZvev8ArKtpVLjftM3vX/WUFtIiICIiAiIgIiICIiAiIgIiICIiAiIgIiICIiAiIgIiICIiAqmxv2mb3r/rK4RB/9k=;" vertex="1" parent="qTHWxoSnpV-X286SpZp5-37">
          <mxGeometry x="25.950000000000045" width="68.1" height="62.57" as="geometry" />
        </mxCell>
        <mxCell id="qTHWxoSnpV-X286SpZp5-42" style="edgeStyle=orthogonalEdgeStyle;rounded=0;orthogonalLoop=1;jettySize=auto;html=1;entryX=0;entryY=0.5;entryDx=0;entryDy=0;startArrow=classic;startFill=1;" edge="1" parent="1" source="qTHWxoSnpV-X286SpZp5-38" target="qTHWxoSnpV-X286SpZp5-2">
          <mxGeometry relative="1" as="geometry" />
        </mxCell>
        <mxCell id="qTHWxoSnpV-X286SpZp5-38" value="USER" style="shape=umlActor;verticalLabelPosition=bottom;verticalAlign=top;html=1;outlineConnect=0;" vertex="1" parent="1">
          <mxGeometry x="360" y="295" width="30" height="60" as="geometry" />
        </mxCell>
        <mxCell id="qTHWxoSnpV-X286SpZp5-41" value="" style="group" vertex="1" connectable="0" parent="1">
          <mxGeometry x="550" y="220" width="120" height="135" as="geometry" />
        </mxCell>
        <mxCell id="qTHWxoSnpV-X286SpZp5-2" value="API GATEWAY" style="rounded=0;whiteSpace=wrap;html=1;" vertex="1" parent="qTHWxoSnpV-X286SpZp5-41">
          <mxGeometry y="75" width="120" height="60" as="geometry" />
        </mxCell>
        <mxCell id="qTHWxoSnpV-X286SpZp5-40" value="" style="shape=image;verticalLabelPosition=bottom;labelBackgroundColor=default;verticalAlign=top;aspect=fixed;imageAspect=0;image=data:image/jpeg,/9j/4AAQSkZJRgABAQAAAQABAAD/2wCEAAkGBw0NDQ0NDQ0RDg0NEA8QDQ0QDxAQDQ8NFhEWFhURFRUYIDQgGR4xGxMVITEtJSotLi8wFx8zODMuNygtMisBCgoKDg0OGg8QGisiHR8rLS0tLS0rLS0rLS0rLS0rLS0tKystLS0rLS0tKy0rKysrKy0tLSstLS0tLS0tLS0rLf/AABEIAOEA4QMBEQACEQEDEQH/xAAbAAEAAwEBAQEAAAAAAAAAAAABAgYHBQQAA//EAEYQAAEDAQMGCgYIBAYDAAAAAAEAAgMEBQYRBxIhMXGxEzI1QWFyc3SRsyI0UYGhshQjNkNigsHRQlKSwhVUk6Li8BYkM//EABsBAQEAAwEBAQAAAAAAAAAAAAABAgUGBAMH/8QANhEBAAECBAIHBwQBBQEAAAAAAAECAwQFETE0cRIhQVFygcEiM2GRobHREzLh8BQVI0JS8VP/2gAMAwEAAhEDEQA/AOQsn6CQgkgQgUCECgUCgUEkCgQgUCilAhQKBQIQSCBQIKCSBQKgUUoPkRXwskKBCCSBCBQIQKBCBQIQSQKBCBQKKUCoFAoEIJBAoEFBJAoFAqK+xVFfVYkIFAhBJAhAoEIFAoFAhBJAoEIFAopQKgUCgQgkECgQUEkCgUHygr6zYlRSECgQgkgQgUCECgQgUCgkgUCECgUUoEKBQKBCCQQKBBQSQKD5QV9ZsSilQIQKBCCSBxQdaxbvVlcfqIjmc8z8WxDY7n92KPLiMbZw8e3PX3Rv/ea/WPcCkhbjUk1Mh162RN2NBx8Spq0GIzm9XP8At+zHzln94qJlNW1MEeOZG/BmOkhpaHAf7sPcq6DCXZu2KLlW8x/DnhHpKBQSQKBCD9qSLhJYoycBJIxhI1gOcBj8UY3KuhRNXdEz8oaZaFxqKSMNhBgeBoe0lwJ/EDr+CxctZzi/RVrX7Ud34Uq2bs1lHiXs4SIffRguaB7XDW33+KrfYbMbF/qidJ7p9O9xgUe4oFAhBIIFAgoJIFBXgsmJQKBUUhA4oOvYd3ayvwNPH9XjgZn4thHv5/dijy4nG2cP++evujdoVi3Eo6UCWpP0iRoziX+jAwjTjm8/5sVNXP4jNr132bfsxPdv8/wLav5R0uMVM36RI3R6GDYG7Xc/uCaGGyi9d9q57MfHf5fk3BtuprzVvqHg5rowxjWhrGAg6Bz+KSZphbWHiim3Hfr8VGvpypWddvlMVb3LeFo5esuMj2lAoEIJIFB67K9Zpu3h8xqPlf8AdV+Gfs0++9ozUlKyaB+Y8TMGoEFpBxBBWLlcrsW792aLkaxpLnWNfyCXCOrZwLzo4QelCdvO3cro9OJya5R7VmdY7u3+XutS6tDXN4aLCN79ImiILHdJbqO9R8LGZYjDz0K+uI7J3+e6j2xdiso8XPZwkQ+9jxLQPxDW3d0qt/hsxsX+qJ0nun+9bjAo95QIQSCBQIKBQV9ZMSECgUV17Du3WV5HARfV44Onec2Jvt6XHYo8mJxtnDx7c9fdG7RLEuHRUg4WpP0iRukmTAQM2N/fFTVoMRm1697Nv2Y+G/z/AAjbd/6SnBjpR9JkboGb6MDT1uf3JouGyi9c9q57MfX5fln1tXhrK4/+xLizmhZi2Efl5/fiq3+HwdnD/sjr753/ALycwI9TRsk3FrOtFuKkudz3ejzVe+vKlb12eUxXsbXLeFo5esuKEe0oFAoFBJB67K9apu3h8xqPlf8AdV+Gfs0XKV6i3tmbisYc3knETylmSydS91l2rUUjs6nlLMdbdcbtrdSj438NavxpcjX7/NebGv5DJgysbwL9XCNBdEdo1t+O1NGgxOS109dmelHd2/y91p3Xoa5vCxERvdpE0JaWO6w1Heo89jMcRhp6FXXEdkqRbN2aujxc5nCQj75mloH4hrbu6VW/wuY2cR1ROlXdPp3uMj3kIJBAoHFBXlkxSQIQKDZ7ny8HYlPI0DFkEjwOYkFx0rGd3IY+npY2qme2YZbbF4qyvOM8xzDpELCWwj8o1+/FV0+HwdnD9VEdff2/3k5oR6SgQg0bJLxa3rRbipLnc93o81XvrypW9dvlMVhtcu4Wjl6y4qPaUCgUCgQg9lk+tUvbw+Y1Hyv+6r8M/Zo2Uv1BvbR7ipDm8l4ieUsxCrqSgUV7bMtWopHZ0Erme1uOMbtrToKj4X8Navxpcp1+/wA2o09Y6qsszyAB0tPIXAcXHNPt2KOSrtRZxf6dO0VQyRuoKu0koEIJBAoK8FkxKCSBCDZLscgxd1l/vWM7uSxnHT4o9GNx6hsCyddO6agQgUGj5JOLW9aLcVJc7nu9Hmr18qGodadY5lPK5pe3BzYnuafq26iBpVbHL71uMNRE1RHV3x3yr8kT2OLHscxwwxa5pa4Y6tBRsIqiqNYnWHp/w2q/y0/+jJ+yPn+va/7x84fjFE97s1jHPd/K1pc7wCM6qopjWZ0h+0lDUMBc+CVjRrc6J7WjaSEYxdt1TpFUTPOEYKaWTHg4nyYa8xjnYbcAi1XKKf3TEc5M1NLHhwkT48cc3PY5uOGvDEaUKblFX7ZieU6vbY1JM6ele2GRzOHhOeI3lmAkGJxAw5ij5Yi7RFuumao10nq1juaBlL9Qb2zNzlIc9kvETylmKrqSECgUVq1h8is7rJucsXIYrj58UejKmahsCrr53SQKBCBxQV8LJiUCEEkGy3X5Ai7rL/esZ3cjjOOnxR6Maj1DYFk6+d00CoEINHyScWt60XylSXO57vR5u3al+KKlnlp5GymSIgOzWAtxLQ7QcfYQmjx2cqvXbcXKZjSfize81pR1dfLVRZwjeYSA4YO9FjWnRtaVXR4OxVZw8Wqt41+syvxyi2fp9Cf/AEx+6mjQ/wCi4jvj5qLdi1I6SubUyhxjHCYhoxd6QOGhVvcbh6r1ibdO/V9FpvJfWjq6OenjbKHyNAaXMAbrB0nHoU0avB5Xes3qblWmkfFy7kXjp7PbUCcPPCuYW5jQdQIOOnpSXqzPA3MTNM0adWu76+946e0BTiAPHBGQuz2gcYNww09BSDLMDcw01dPTr02de6F7KWCmpaN7ZOFzizENBZnPlOGnH8QSXkzDLbty7XejTTf5R/DpZTPUG9szcUh5sl4ieUswVdUUCECg1aw+RGd1k3OWLkcVx8+KPRlTNQ2LJ18pKBQKBQV8LJiQgQgQg2e63IEXdZf71jO7ksZx0+KPRjMZ0DYFk66d00QoFRWj5I+LW9aL5SpLnc93o81WvtyrW9ozymK9ja5dwtvl6y4gR7UkCECgQgUHrsn1ql7eDzGo+V/3Vfhn7NIymeoN7Zm4qQ5rJeInlLLwq6pJAoEINXsPkSPusm5yxcjiuPnxR6MpZqGxZOvlJAqBQKCvLJikgQgUGz3X5Ai7rLuesZ3cljOOnxR6MZj1DYFk66d0wiFAorSMkXFretF8pWMudz3ejzVW+/Ktb2jPKYr2Nrl3C2+XrLiI9pCCSDsWbdutqqc1NPGJIw4szQ4CQkayAdBHNrR472Os2bn6dc6T9HKe0tJa4YOaSHA6wQcCCj1xMTGsPgivXZPrVL28HmNR8r/uq/DP2aTlN9Qb28e4qQ5rJeInlLLlXVEIJIFBrFh8iR91k+VyxcjiuPnxR6MoZqGwLJ187pIFAqBQV4LNiVBJAhBtF1vs/F3WXc9Yzu5HGcdPij0YxHqGwLN187pqIQgUGkZIeJW9aL5SsZc9nu9Hmqt9+Va7tGeUxXsbXLuFt8vWXouddaS0ZM9+LKRh9OQaDI4H/wCbP1PNtSXzx+Ppw1Okddc9nd8Z9E79WFDQVLRBIMyYZwgJxki/4+zHTrSEy3F14i37cdcdvZP8q6xpcQ1oxc4hrR7XE4AeJRsZmIjWWySubY9kYDjQRYN/FO7/AJOxU3cfTrjcX1/8p+kfwzO6lksrqtkEswY3S52J+slw0lren29GKsulx2IqsWZrpp1+0c3YvpdE0ZNTTAupTpkbjiYD+rdyRLyZdmUXv9u5+7s+P8/dXLJ9ape8QeY1Gyv+6r8M/ZpOU71Bvbx7ipDmsl4ieUsuCrqigQgkg1iwuRI+6yfK5RyOK4+fFHoyhmobFXXykiFFKBUFeCzYkIFQSQbRdX7Pw91l3PWM7uRxnHT4o9GMR8UbAs3XzukFESQIQaTkh4tb1ovlKxlz2e70ebxS3f8A8St6vY5+ZDC+J82HHc0xtAY32Y4HTzK9j704z/GwFuqI1mYmI+c9a13nt2Gx6WOKCJvCOGbTQgYRtA1uPQPE4qbtXg8LXjbs1Vz1ds9rIampkmkdLK8ySPOL3uOJJVdZRRTRTFNMaRCxZPbM+k2gxzhiylHDO9mfjgweOn8qS8Ga3/0sPMRvV1fn+/F3Mq1pYup6Np4v10oB58C1gPi4+CkPFkdjSKr08o+8qDG8tIc0lrmkFrgcHAjUQVW+mImNJarcm84r2GlqQDUMZpJGLZ49RcRqB9o6VJhy2ZYD/Hq/Vt/tmflP92V+8t22UFdRTQnCnnqoQ2Lnifnglo/DoOHsVhsMHjpxFi5RX+6mmevvjT7rBlP9QZ28e4qQ1+S8RPKWWquqIQKBCDWrC5Dj7rJuco5HFcfPij0ZMzUNgVdfO6YRCgUU4oK8smJCBCCQUG03U+z8PdZdz1jO7ksZx8+KPRi0fFGwLOXXTumFEKCSDSckHFretF8pUlz2e70ebiW5bE9BbtZPA7SJGCRh4skfBMxYf35lex7cPhqMRgaKK+6dPhOsr8x1Db1DpGLTzHATU8w3H4EdCx2aOYv5ff8A7pMf35Mot6xp7PnMEwx545ADmSM/mH6jmVdThsTRiKOnR5x3NJya2cKegNS/Q6qPCF3shaCGfDE/mUlzub3puX/04/49Xn2s2t20DV1dRU46JXnM6IwM1o8AFXR4Wz+jZpt90fXtfnZlBNVzMggbnSPOj+Vo53OPMEZXr1Fmia650iGt2VZtJYlG+SRwxDQaicj0pHgaGtG4KbuTv372PvRTTHKO7+9ss/tC8Mto2hSvdi2FlRDwEOj0BwjdJ9riq6C1g6MNh64jrqmmdZ8p+i55T/UG9vHucpDTZLxE8pZYFXVFAhAoNbsLkOPusm5yjkcVx8+KPRkrNQ2BV187pohCBQKKryyYlAhAhBtd1Ps/D3SXc9YTu5LGcfV4o9GKxH0W7BuWcuundMKIQgQg0vI/xa7rRfKVJc9nu9Hmqd+OVq7tGeUxWNm1y7hbfL1l5LBtmez5xPAdOhskZxzJGY8U/oeZH1xOGoxFHQr8vhLqWpatRbddBEfQje8MhhB4jTpc8nndgCcehTZ5rNi3gbFVW8xGsz390cl9v5WtorLMEfomZopomjWI83B2H5QfFSN2jyy1N/FdOrs9qef/AKyEKutdGw7YmoZ2zwnoew8SRnO0/wDdCPPicNRiKOhX5fB67z3imtGUOf6EMZPAwg6G/id7XI+eCwdGGo0jrmd5/vY8NketUveIPNaj73/dV+Gfs0vKhye3t49zlIc1kvETyllirqiECgUGt2FyHH3WT5XLGXI4rj58UejJWHQNgWTr53TRCgQgUFeWSFAoEINrup9noe6S7nrCd3I4zjp8UejFIuK3YNyzl187v0CiEIEINLyPcWu60XylSXPZ7vR5qnfnlau7RnlMV7G1y7hbfL1lxAj2PbZFpy0U7KiHN4RmcBntzm4EYH4I+V+xTeom3XtL33nvJLaboXSxtj4FrmhrXEtLnEYv06tQ8FNHwweCowsVRTOurjI9pCBQeyyPW6XvEHmtVfK/7qvwz9mmZUeT2dvHucsYc1kvETyllYVdUUCECg1yweQo+6yfK5SXI4rj58UejJGahsCrr53SCIkgUH2KCvrJiUUoEINsup9noe6S7nrCd3I4zjp8UejE4uK3YNyzl187pqIkgQg0zI9xa7rRfKVJc9nu9HmqV+eVq/tGeSxWNm1y7hbfL1lxEewhAoFFKgQg9lket0neIPNaq+V/3Vfhn7S03Kjyezt49zljDmsl4ieUsqVdUQgUCEGu2DyFH3WTc5SXI4rj58UejI2HQNgVddO6SBQSQfIK+smJQKKQg226f2eh7pLuesJ3cjjOOnxR6MSi4rdg3LN187phEKgkEGmZHeJXdeL5SpLns93o83Fvjd60JrTrJYqOWSN72lj2tGa4cGwaNPtBViY0ezA4yxRhqKaq4iYj1lVqqllgkMM0bo5W5udG7Q4YgEfAjxRsqLlNdPSpnWO90/8Axe0/8hP/AEj901h8P87Df/SHgo6KaeTgoYnSy4E5jRi7Aa0feu7Rbp6Vc6R3vZVWBXwsdLNSSxxs0ue5oDWjp0o+VGLsV1dGmuJmX5WfZVVVBxp6d8wYQHlgBzSdQKM7uItWtIrqiNe819l1VLmmogfDn45meMM4jXh4hQtX7V3X9OqJ07nvsGxa2SWknjppHw8PE7hQBmZrZRnHHowPgj4YnFWaaK6KqoidJ6ucL9lS5Pb28e5ykNFkvETyllIVdUkgQgUGu2ByFH3WTc5SXI4rj58UejI2ahsCrr53SCIUCgUFeCyYpIFAorbrp/Z6Huku56wndyOM46fFHoxGPijYFm6+d0wiEIFQabkc4ld14vlKkuez3ejzdO28ocNHVTUrqWV7oXBpe17A04tDtGPWU0efD5RXetU3IqiNebOLx2s2trpaxrDG2QxEMcQXDMY1p0jR/CsnQYWxNizFqZ101+szK9HKlAdH0Kb+uNTotL/odf8A3j5Spl17abQ1v0p0bpG5sgzGkB3pdJTRuMZhpv2f0onTb6LJeG/8NbRzUzaWRjpWgB7nsLRpB04bE0a/C5TXZu03JqidObm3LvXHZjJ2vgfLwzmOBY5owwbhpxSY1ejMMBVippmKojQXzvTHaYpwyF8XAmQnPc052cG6sNiRC5fgKsL0taonXT6OvdC+sVNBSUDqeRz8/g+EDmhuMkpwOGv+P4JMPLj8squ3K78VRpprpyj+Hcyp8nt7ePc5SHiyXiJ5SyhV1RCCSBCDXrB5Cj7pJ8rlJcjiuPnxR6MiZqGwKuvndJEKBQKCvLNiQoJIFBt10/s9D3SXc9YTu5LGcdPij0YjHxRsCzdfO6aIQgQg07I3xK7rxfKVjU57Pd6PNUb98r1/aM8lisbNpl3C2+XrLhhHtIQKCSBCBQeuyPW6TvFP5rUfO/7qvwz9paflU5PZ28e5yxhzWS8RPKWUBV1RQIQSQa/YHIMfdJPlcpO7kcVx8+KPRkLNQ2BV107pBAoEIFBXgsmJVCFBJBulx4xLYVNGHYZ8D4ydeaSXD9VhO7kcfPRxlVXx1Z1auTm06bTExtXGOeIhsmHSx36ErLpQ3lnNsPc/dPRn4/lVqiCSJ2ZKx0bx/C9pa7wKrY01RVGtM6wijIhBp2RriV3Xi+UrGpz2e70eapX85Xr+0Z5LFY2bTLuFt8vWXCCPaQgUCEEkCEHrsj1uk7zT+a1Hzv8Auq/DP2lqGVTk9nbx7nLGHNZLxE8pZOq6ohBONjnODWtLnHU1oLnH3BEmYiNZWKy7k2jUYEw8Aw/xzEA4dDBp8cE1a+9mmGtdvSn4fnZpMdD9Dsp1O54dwNNI0vwzQfROn4rFzk3f18XFyI3qhirNQ2BZO0ndJAhAoHFBXlkxIKBVCFB07It6tojjS1L4244mPHOiJ6WHR+qaPjew1q97ymJ+/wA11srKtM3BtZStkHPJC7NftzHaD4hY9Fqb2SUT126tPhP5/hbILx2JarRFI+F5dqhqWNa/Hoz+fYppMNdVhMZhZ6VMTzj+HPtbJlQzAupZH0rjpAH1sP8ASTj4FXpPtZzm9R1XI6X0lTbWye2nTYuYxtUwc8J9PDqHT4Yq6w21nNcPc6pnoz8fys2R+F8Yr2yMdG4Pixa9rmOHonmOlSpr87qiqaJpnXdTr+cr1/aM8lisbNrl3C2+U/eXBR7UggQgUCgkg9dket0neafzWo+d/wB1X4Z+0tSypNLrPYGtLiZ48GtBc46HagFjDmsmmIxEzPdKj2Tcq0arA8DwDDh6c+LDh7QzjfAK6t1fzPD2urpaz8Ov67LfZWTanjwdVzOnd/KwcFHvJPipq1N/O7lXVap6P1l1n2hY1lAsYYIX6zHEGumO0N0+KdcvLFnGYvrnWY752/CvWnlLOJbSU2jThLM7D3hg/Upo2FnI+27V5R+f4VG1bxVtZiJ6hxYfumnMi97Rr9+KrbWMHYs/sp6+/ef7yc1HqIQKBQKCurNikoEIFUIUEkHyDrWVeOvo8Po9VIxow+rJD49ma7EeCaPhdwlm9++mJ+k/RdLJyqyNwbW0of7ZICA7bmOOHxWPRam9klM9dqrTn+Y/C52VfGzKoYx1LGPw0sl+qkAHW1+5TRqr2X4i1+6nWPh1wx+99ZHUWlWzROzo3y+g4anBrGtJHRi0rONnU4K3Vbw9FFW8R66uQEeoqCQQIQIQIQemgmbHPBI7ixzRPdhpOa2QOOjYEYXKZqoqpjtiY+cNtrr02bCwPkqoyCM5oYeEeR0BulY6OOt4HEVzpTRP2VS08pw0tpKYn2STkAbQ1p3kK6NpZyOd7tXlH5lULSvRaFVjwtU8MP3ceEcY6MG6T7yUbazgcPa/bRGvfPXLkBV60goFAhBJAhAoPkFfBWbF8gkoEIFUIUEkCgUV8gkgQgQgVBJAhAoEIEIJBAoFFKgQgUCEEkCEHyCvLJikCqPkEgoEIFUIUEkCgUUoFAhAhAqCQQIQIQKCSBCBQKBUUhAoEIJIPkFeBWbEqCQKo+QSUCECqEKCSBQKKUCgQgQgVBJAhAoFBJAhAoFAqKQgUCECgryzYkFAqCQKo+QSUCECqEKCSBQKKUCgQgQgVBJAhAhAoJIEIFAoFRSECgUFfWbF8gkFAhAqhCBUElQhQIQIQKBRSECECgkECFAoJBAoEIEIFAopRCopCBQf/9k=;" vertex="1" parent="qTHWxoSnpV-X286SpZp5-41">
          <mxGeometry x="27.5" width="65" height="65" as="geometry" />
        </mxCell>
        <mxCell id="qTHWxoSnpV-X286SpZp5-43" style="edgeStyle=orthogonalEdgeStyle;rounded=0;orthogonalLoop=1;jettySize=auto;html=1;entryX=0;entryY=0.5;entryDx=0;entryDy=0;startArrow=classic;startFill=1;" edge="1" parent="1" source="qTHWxoSnpV-X286SpZp5-2" target="qTHWxoSnpV-X286SpZp5-4">
          <mxGeometry relative="1" as="geometry" />
        </mxCell>
      </root>
    </mxGraphModel>
  </diagram>
</mxfile>
